<svg width="772" height="1024" viewBox="0 0 772 1024" fill="none" xmlns="http://www.w3.org/2000/svg">
<path d="M-8 183.488L184.488 -9H185.942L-8 184.942V183.488Z" fill="url(#paint0_linear)"/>
<path d="M-8 330.102L331.102 -9H332.424L-8 331.424V330.102Z" fill="url(#paint1_linear)"/>
<path d="M-8 154.271L155.271 -9H156.593L-8 155.593V154.271Z" fill="url(#paint2_linear)"/>
<path d="M-8 388.668L389.668 -9H391.122L-8 390.122V388.668Z" fill="url(#paint3_linear)"/>
<path d="M-7.99994 359.319L360.319 -9H361.773L-7.99994 360.773V359.319Z" fill="url(#paint4_linear)"/>
<path d="M-8 7.65763L8.78984 -9H10.1119L-8 9.11186V7.65763Z" fill="url(#paint5_linear)"/>
<path d="M-7.99997 271.403L272.403 -9H273.858L-7.99997 272.858V271.403Z" fill="url(#paint6_linear)"/>
<path d="M-8 37.0068L38.0068 -9H39.4611L-8 38.461V37.0068Z" fill="url(#paint7_linear)"/>
<path d="M-7.99995 242.186L243.187 -9H244.509L-7.99995 243.508V242.186Z" fill="url(#paint8_linear)"/>
<path d="M-7.99999 95.5729L96.5729 -9H98.0271L-7.99999 97.0271V95.5729Z" fill="url(#paint9_linear)"/>
<path d="M-7.99998 212.837L213.837 -9H215.292L-7.99998 214.292V212.837Z" fill="url(#paint10_linear)"/>
<path d="M-8 124.922L125.922 -9H127.376L-8 126.376V124.922Z" fill="url(#paint11_linear)"/>
<path d="M-8 300.753L301.753 -9H303.207L-8 302.207V300.753Z" fill="url(#paint12_linear)"/>
<path d="M-8 66.3559L67.3559 -9H68.678L-8 67.678V66.3559Z" fill="url(#paint13_linear)"/>
<path d="M-7.99991 476.583L477.583 -9H479.037L-7.99991 478.037V476.583Z" fill="url(#paint14_linear)"/>
<path d="M-8 505.932L506.932 -9H508.254L-8 507.254V505.932Z" fill="url(#paint15_linear)"/>
<path d="M-8.00006 710.98L711.98 -9H713.434L-8.00006 712.434V710.98Z" fill="url(#paint16_linear)"/>
<path d="M-8 535.149L536.149 -9H537.603L-8 536.603V535.149Z" fill="url(#paint17_linear)"/>
<path d="M-8 681.631L682.63 -9H684.085L-8 683.085V681.631Z" fill="url(#paint18_linear)"/>
<path d="M-8 564.498L565.498 -9H566.82L-8 565.82V564.498Z" fill="url(#paint19_linear)"/>
<path d="M-8 652.414L653.414 -9H654.736L-8 653.736V652.414Z" fill="url(#paint20_linear)"/>
<path d="M-8.00006 593.715L594.715 -9H596.169L-8.00006 595.169V593.715Z" fill="url(#paint21_linear)"/>
<path d="M-8 623.064L624.064 -9H625.519L-8 624.519V623.064Z" fill="url(#paint22_linear)"/>
<path d="M770.546 -9H772L-8 771V769.546L770.546 -9Z" fill="url(#paint23_linear)"/>
<path d="M-8 740.329L741.329 -9H742.651L-8 741.651V740.329Z" fill="url(#paint24_linear)"/>
<path d="M-8 447.234L448.234 -9H449.688L-8 448.688V447.234Z" fill="url(#paint25_linear)"/>
<path d="M-8 418.017L419.017 -9H420.339L-8 419.339V418.017Z" fill="url(#paint26_linear)"/>
<path d="M188.293 1024L0 835.707V834.285L189.715 1024H188.293Z" fill="url(#paint27_linear)"/>
<path d="M331.711 1024L3.05176e-05 692.289V690.996L333.004 1024H331.711Z" fill="url(#paint28_linear)"/>
<path d="M159.713 1024L0 864.287V862.994L161.006 1024H159.713Z" fill="url(#paint29_linear)"/>
<path d="M389.001 1024L0 634.999V633.577L390.423 1024H389.001Z" fill="url(#paint30_linear)"/>
<path d="M360.291 1024L3.05176e-05 663.709V662.286L361.714 1024H360.291Z" fill="url(#paint31_linear)"/>
<path d="M16.4239 1024L0 1007.58V1006.28L17.7172 1024H16.4239Z" fill="url(#paint32_linear)"/>
<path d="M274.292 1024L0 749.708V748.285L275.715 1024H274.292Z" fill="url(#paint33_linear)"/>
<path d="M45.004 1024L0 978.996V977.573L46.4266 1024H45.004Z" fill="url(#paint34_linear)"/>
<path d="M245.712 1024L4.57764e-05 778.288V776.995L247.005 1024H245.712Z" fill="url(#paint35_linear)"/>
<path d="M102.294 1024L0 921.706V920.284L103.716 1024H102.294Z" fill="url(#paint36_linear)"/>
<path d="M217.002 1024L1.52588e-05 806.998V805.575L218.425 1024H217.002Z" fill="url(#paint37_linear)"/>
<path d="M131.003 1024L0 892.997V891.574L132.426 1024H131.003Z" fill="url(#paint38_linear)"/>
<path d="M303.002 1024L0 720.998V719.576L304.424 1024H303.002Z" fill="url(#paint39_linear)"/>
<path d="M73.7136 1024L0 950.286V948.993L75.0068 1024H73.7136Z" fill="url(#paint40_linear)"/>
<path d="M475 1024L3.05176e-05 549V547.578L476.422 1024H475Z" fill="url(#paint41_linear)"/>
<path d="M503.709 1024L3.05176e-05 520.291V518.997L505.003 1024H503.709Z" fill="url(#paint42_linear)"/>
<path d="M704.288 1024L0 319.712V318.29L705.71 1024H704.288Z" fill="url(#paint43_linear)"/>
<path d="M532.29 1024L0 491.71V490.288L533.712 1024H532.29Z" fill="url(#paint44_linear)"/>
<path d="M675.578 1024L0 348.422V346.999L677.001 1024H675.578Z" fill="url(#paint45_linear)"/>
<path d="M560.999 1024L0 463.001V461.708L562.292 1024H560.999Z" fill="url(#paint46_linear)"/>
<path d="M646.998 1024L0 377.002V375.709L648.291 1024H646.998Z" fill="url(#paint47_linear)"/>
<path d="M589.579 1024L0 434.421V432.998L591.002 1024H589.579Z" fill="url(#paint48_linear)"/>
<path d="M618.289 1024L0 405.711V404.289L619.711 1024H618.289Z" fill="url(#paint49_linear)"/>
<path d="M763 1024H761.577L6.10352e-05 262.423V261L763 1024Z" fill="url(#paint50_linear)"/>
<path d="M732.997 1024L0 291.003V289.71L734.291 1024H732.997Z" fill="url(#paint51_linear)"/>
<path d="M446.29 1024L0 577.71V576.287L447.713 1024H446.29Z" fill="url(#paint52_linear)"/>
<path d="M417.71 1024L6.10352e-05 606.29V604.997L419.003 1024H417.71Z" fill="url(#paint53_linear)"/>
<defs>
<linearGradient id="paint0_linear" x1="458.021" y1="-281.778" x2="-282.508" y2="458.751" gradientUnits="userSpaceOnUse">
<stop stop-color="#FFD89B"/>
<stop offset="0.6436" stop-color="#754C24"/>
<stop offset="0.8385" stop-color="#42210B"/>
<stop offset="1" stop-color="#D2AA74"/>
</linearGradient>
<linearGradient id="paint1_linear" x1="531.278" y1="-208.522" x2="-209.252" y2="532.008" gradientUnits="userSpaceOnUse">
<stop stop-color="#FFD89B"/>
<stop offset="0.6436" stop-color="#754C24"/>
<stop offset="0.8385" stop-color="#42210B"/>
<stop offset="1" stop-color="#D2AA74"/>
</linearGradient>
<linearGradient id="paint2_linear" x1="443.369" y1="-296.429" x2="-297.161" y2="444.101" gradientUnits="userSpaceOnUse">
<stop stop-color="#FFD89B"/>
<stop offset="0.6436" stop-color="#754C24"/>
<stop offset="0.8385" stop-color="#42210B"/>
<stop offset="1" stop-color="#D2AA74"/>
</linearGradient>
<linearGradient id="paint3_linear" x1="560.581" y1="-179.219" x2="-179.949" y2="561.311" gradientUnits="userSpaceOnUse">
<stop stop-color="#FFD89B"/>
<stop offset="0.6436" stop-color="#754C24"/>
<stop offset="0.8385" stop-color="#42210B"/>
<stop offset="1" stop-color="#D2AA74"/>
</linearGradient>
<linearGradient id="paint4_linear" x1="545.929" y1="-193.87" x2="-194.601" y2="546.66" gradientUnits="userSpaceOnUse">
<stop stop-color="#FFD89B"/>
<stop offset="0.6436" stop-color="#754C24"/>
<stop offset="0.8385" stop-color="#42210B"/>
<stop offset="1" stop-color="#D2AA74"/>
</linearGradient>
<linearGradient id="paint5_linear" x1="370.113" y1="-369.687" x2="-370.417" y2="370.844" gradientUnits="userSpaceOnUse">
<stop stop-color="#FFD89B"/>
<stop offset="0.6436" stop-color="#754C24"/>
<stop offset="0.8385" stop-color="#42210B"/>
<stop offset="1" stop-color="#D2AA74"/>
</linearGradient>
<linearGradient id="paint6_linear" x1="501.976" y1="-237.825" x2="-238.555" y2="502.706" gradientUnits="userSpaceOnUse">
<stop stop-color="#FFD89B"/>
<stop offset="0.6436" stop-color="#754C24"/>
<stop offset="0.8385" stop-color="#42210B"/>
<stop offset="1" stop-color="#D2AA74"/>
</linearGradient>
<linearGradient id="paint7_linear" x1="384.765" y1="-355.036" x2="-355.763" y2="385.493" gradientUnits="userSpaceOnUse">
<stop stop-color="#FFD89B"/>
<stop offset="0.6436" stop-color="#754C24"/>
<stop offset="0.8385" stop-color="#42210B"/>
<stop offset="1" stop-color="#D2AA74"/>
</linearGradient>
<linearGradient id="paint8_linear" x1="487.324" y1="-252.476" x2="-253.206" y2="488.054" gradientUnits="userSpaceOnUse">
<stop stop-color="#FFD89B"/>
<stop offset="0.6436" stop-color="#754C24"/>
<stop offset="0.8385" stop-color="#42210B"/>
<stop offset="1" stop-color="#D2AA74"/>
</linearGradient>
<linearGradient id="paint9_linear" x1="414.067" y1="-325.733" x2="-326.462" y2="414.796" gradientUnits="userSpaceOnUse">
<stop stop-color="#FFD89B"/>
<stop offset="0.6436" stop-color="#754C24"/>
<stop offset="0.8385" stop-color="#42210B"/>
<stop offset="1" stop-color="#D2AA74"/>
</linearGradient>
<linearGradient id="paint10_linear" x1="472.672" y1="-267.127" x2="-267.857" y2="473.402" gradientUnits="userSpaceOnUse">
<stop stop-color="#FFD89B"/>
<stop offset="0.6436" stop-color="#754C24"/>
<stop offset="0.8385" stop-color="#42210B"/>
<stop offset="1" stop-color="#D2AA74"/>
</linearGradient>
<linearGradient id="paint11_linear" x1="428.718" y1="-311.081" x2="-311.811" y2="429.447" gradientUnits="userSpaceOnUse">
<stop stop-color="#FFD89B"/>
<stop offset="0.6436" stop-color="#754C24"/>
<stop offset="0.8385" stop-color="#42210B"/>
<stop offset="1" stop-color="#D2AA74"/>
</linearGradient>
<linearGradient id="paint12_linear" x1="516.627" y1="-223.173" x2="-223.904" y2="517.358" gradientUnits="userSpaceOnUse">
<stop stop-color="#FFD89B"/>
<stop offset="0.6436" stop-color="#754C24"/>
<stop offset="0.8385" stop-color="#42210B"/>
<stop offset="1" stop-color="#D2AA74"/>
</linearGradient>
<linearGradient id="paint13_linear" x1="399.415" y1="-340.384" x2="-341.114" y2="400.145" gradientUnits="userSpaceOnUse">
<stop stop-color="#FFD89B"/>
<stop offset="0.6436" stop-color="#754C24"/>
<stop offset="0.8385" stop-color="#42210B"/>
<stop offset="1" stop-color="#D2AA74"/>
</linearGradient>
<linearGradient id="paint14_linear" x1="604.535" y1="-135.265" x2="-135.993" y2="605.263" gradientUnits="userSpaceOnUse">
<stop stop-color="#FFD89B"/>
<stop offset="0.6436" stop-color="#754C24"/>
<stop offset="0.8385" stop-color="#42210B"/>
<stop offset="1" stop-color="#D2AA74"/>
</linearGradient>
<linearGradient id="paint15_linear" x1="619.187" y1="-120.614" x2="-121.342" y2="619.915" gradientUnits="userSpaceOnUse">
<stop stop-color="#FFD89B"/>
<stop offset="0.6436" stop-color="#754C24"/>
<stop offset="0.8385" stop-color="#42210B"/>
<stop offset="1" stop-color="#D2AA74"/>
</linearGradient>
<linearGradient id="paint16_linear" x1="721.746" y1="-18.054" x2="-18.7861" y2="722.478" gradientUnits="userSpaceOnUse">
<stop stop-color="#FFD89B"/>
<stop offset="0.6436" stop-color="#754C24"/>
<stop offset="0.8385" stop-color="#42210B"/>
<stop offset="1" stop-color="#D2AA74"/>
</linearGradient>
<linearGradient id="paint17_linear" x1="633.838" y1="-105.962" x2="-106.69" y2="634.566" gradientUnits="userSpaceOnUse">
<stop stop-color="#FFD89B"/>
<stop offset="0.6436" stop-color="#754C24"/>
<stop offset="0.8385" stop-color="#42210B"/>
<stop offset="1" stop-color="#D2AA74"/>
</linearGradient>
<linearGradient id="paint18_linear" x1="707.094" y1="-32.705" x2="-33.4361" y2="707.825" gradientUnits="userSpaceOnUse">
<stop stop-color="#FFD89B"/>
<stop offset="0.6436" stop-color="#754C24"/>
<stop offset="0.8385" stop-color="#42210B"/>
<stop offset="1" stop-color="#D2AA74"/>
</linearGradient>
<linearGradient id="paint19_linear" x1="648.489" y1="-91.3106" x2="-92.0427" y2="649.221" gradientUnits="userSpaceOnUse">
<stop stop-color="#FFD89B"/>
<stop offset="0.6436" stop-color="#754C24"/>
<stop offset="0.8385" stop-color="#42210B"/>
<stop offset="1" stop-color="#D2AA74"/>
</linearGradient>
<linearGradient id="paint20_linear" x1="692.443" y1="-47.3567" x2="-48.0833" y2="693.17" gradientUnits="userSpaceOnUse">
<stop stop-color="#FFD89B"/>
<stop offset="0.6436" stop-color="#754C24"/>
<stop offset="0.8385" stop-color="#42210B"/>
<stop offset="1" stop-color="#D2AA74"/>
</linearGradient>
<linearGradient id="paint21_linear" x1="663.14" y1="-76.6595" x2="-77.388" y2="663.869" gradientUnits="userSpaceOnUse">
<stop stop-color="#FFD89B"/>
<stop offset="0.6436" stop-color="#754C24"/>
<stop offset="0.8385" stop-color="#42210B"/>
<stop offset="1" stop-color="#D2AA74"/>
</linearGradient>
<linearGradient id="paint22_linear" x1="677.792" y1="-62.0083" x2="-62.7396" y2="678.523" gradientUnits="userSpaceOnUse">
<stop stop-color="#FFD89B"/>
<stop offset="0.6436" stop-color="#754C24"/>
<stop offset="0.8385" stop-color="#42210B"/>
<stop offset="1" stop-color="#D2AA74"/>
</linearGradient>
<linearGradient id="paint23_linear" x1="751.049" y1="11.2487" x2="10.5193" y2="751.778" gradientUnits="userSpaceOnUse">
<stop stop-color="#FFD89B"/>
<stop offset="0.6436" stop-color="#754C24"/>
<stop offset="0.8385" stop-color="#42210B"/>
<stop offset="1" stop-color="#D2AA74"/>
</linearGradient>
<linearGradient id="paint24_linear" x1="736.397" y1="-3.40251" x2="-4.13217" y2="737.127" gradientUnits="userSpaceOnUse">
<stop stop-color="#FFD89B"/>
<stop offset="0.6436" stop-color="#754C24"/>
<stop offset="0.8385" stop-color="#42210B"/>
<stop offset="1" stop-color="#D2AA74"/>
</linearGradient>
<linearGradient id="paint25_linear" x1="589.883" y1="-149.916" x2="-150.648" y2="590.615" gradientUnits="userSpaceOnUse">
<stop stop-color="#FFD89B"/>
<stop offset="0.6436" stop-color="#754C24"/>
<stop offset="0.8385" stop-color="#42210B"/>
<stop offset="1" stop-color="#D2AA74"/>
</linearGradient>
<linearGradient id="paint26_linear" x1="575.232" y1="-164.568" x2="-165.297" y2="575.962" gradientUnits="userSpaceOnUse">
<stop stop-color="#FFD89B"/>
<stop offset="0.6436" stop-color="#754C24"/>
<stop offset="0.8385" stop-color="#42210B"/>
<stop offset="1" stop-color="#D2AA74"/>
</linearGradient>
<linearGradient id="paint27_linear" x1="486.575" y1="1321.54" x2="-254.21" y2="580.758" gradientUnits="userSpaceOnUse">
<stop stop-color="#FFD89B"/>
<stop offset="0.0397604" stop-color="#F2CC91"/>
<stop offset="0.2218" stop-color="#BD9869"/>
<stop offset="0.4" stop-color="#916D47"/>
<stop offset="0.5706" stop-color="#6F4C2D"/>
<stop offset="0.7314" stop-color="#56341A"/>
<stop offset="0.8787" stop-color="#47260F"/>
<stop offset="1" stop-color="#42210B"/>
</linearGradient>
<linearGradient id="paint28_linear" x1="558.235" y1="1249.88" x2="-182.551" y2="509.097" gradientUnits="userSpaceOnUse">
<stop stop-color="#FFD89B"/>
<stop offset="0.0397604" stop-color="#F2CC91"/>
<stop offset="0.2218" stop-color="#BD9869"/>
<stop offset="0.4" stop-color="#916D47"/>
<stop offset="0.5706" stop-color="#6F4C2D"/>
<stop offset="0.7314" stop-color="#56341A"/>
<stop offset="0.8787" stop-color="#47260F"/>
<stop offset="1" stop-color="#42210B"/>
</linearGradient>
<linearGradient id="paint29_linear" x1="472.242" y1="1335.87" x2="-268.542" y2="595.09" gradientUnits="userSpaceOnUse">
<stop stop-color="#FFD89B"/>
<stop offset="0.0397604" stop-color="#F2CC91"/>
<stop offset="0.2218" stop-color="#BD9869"/>
<stop offset="0.4" stop-color="#916D47"/>
<stop offset="0.5706" stop-color="#6F4C2D"/>
<stop offset="0.7314" stop-color="#56341A"/>
<stop offset="0.8787" stop-color="#47260F"/>
<stop offset="1" stop-color="#42210B"/>
</linearGradient>
<linearGradient id="paint30_linear" x1="586.899" y1="1221.22" x2="-153.886" y2="480.433" gradientUnits="userSpaceOnUse">
<stop stop-color="#FFD89B"/>
<stop offset="0.0397604" stop-color="#F2CC91"/>
<stop offset="0.2218" stop-color="#BD9869"/>
<stop offset="0.4" stop-color="#916D47"/>
<stop offset="0.5706" stop-color="#6F4C2D"/>
<stop offset="0.7314" stop-color="#56341A"/>
<stop offset="0.8787" stop-color="#47260F"/>
<stop offset="1" stop-color="#42210B"/>
</linearGradient>
<linearGradient id="paint31_linear" x1="572.567" y1="1235.55" x2="-168.216" y2="494.767" gradientUnits="userSpaceOnUse">
<stop stop-color="#FFD89B"/>
<stop offset="0.0397604" stop-color="#F2CC91"/>
<stop offset="0.2218" stop-color="#BD9869"/>
<stop offset="0.4" stop-color="#916D47"/>
<stop offset="0.5706" stop-color="#6F4C2D"/>
<stop offset="0.7314" stop-color="#56341A"/>
<stop offset="0.8787" stop-color="#47260F"/>
<stop offset="1" stop-color="#42210B"/>
</linearGradient>
<linearGradient id="paint32_linear" x1="400.583" y1="1407.54" x2="-340.203" y2="666.749" gradientUnits="userSpaceOnUse">
<stop stop-color="#FFD89B"/>
<stop offset="0.0397604" stop-color="#F2CC91"/>
<stop offset="0.2218" stop-color="#BD9869"/>
<stop offset="0.4" stop-color="#916D47"/>
<stop offset="0.5706" stop-color="#6F4C2D"/>
<stop offset="0.7314" stop-color="#56341A"/>
<stop offset="0.8787" stop-color="#47260F"/>
<stop offset="1" stop-color="#42210B"/>
</linearGradient>
<linearGradient id="paint33_linear" x1="529.571" y1="1278.55" x2="-211.214" y2="537.762" gradientUnits="userSpaceOnUse">
<stop stop-color="#FFD89B"/>
<stop offset="0.0397604" stop-color="#F2CC91"/>
<stop offset="0.2218" stop-color="#BD9869"/>
<stop offset="0.4" stop-color="#916D47"/>
<stop offset="0.5706" stop-color="#6F4C2D"/>
<stop offset="0.7314" stop-color="#56341A"/>
<stop offset="0.8787" stop-color="#47260F"/>
<stop offset="1" stop-color="#42210B"/>
</linearGradient>
<linearGradient id="paint34_linear" x1="414.915" y1="1393.2" x2="-325.871" y2="652.418" gradientUnits="userSpaceOnUse">
<stop stop-color="#FFD89B"/>
<stop offset="0.0397604" stop-color="#F2CC91"/>
<stop offset="0.2218" stop-color="#BD9869"/>
<stop offset="0.4" stop-color="#916D47"/>
<stop offset="0.5706" stop-color="#6F4C2D"/>
<stop offset="0.7314" stop-color="#56341A"/>
<stop offset="0.8787" stop-color="#47260F"/>
<stop offset="1" stop-color="#42210B"/>
</linearGradient>
<linearGradient id="paint35_linear" x1="515.239" y1="1292.88" x2="-225.546" y2="552.094" gradientUnits="userSpaceOnUse">
<stop stop-color="#FFD89B"/>
<stop offset="0.0397604" stop-color="#F2CC91"/>
<stop offset="0.2218" stop-color="#BD9869"/>
<stop offset="0.4" stop-color="#916D47"/>
<stop offset="0.5706" stop-color="#6F4C2D"/>
<stop offset="0.7314" stop-color="#56341A"/>
<stop offset="0.8787" stop-color="#47260F"/>
<stop offset="1" stop-color="#42210B"/>
</linearGradient>
<linearGradient id="paint36_linear" x1="443.578" y1="1364.54" x2="-297.205" y2="623.755" gradientUnits="userSpaceOnUse">
<stop stop-color="#FFD89B"/>
<stop offset="0.0397604" stop-color="#F2CC91"/>
<stop offset="0.2218" stop-color="#BD9869"/>
<stop offset="0.4" stop-color="#916D47"/>
<stop offset="0.5706" stop-color="#6F4C2D"/>
<stop offset="0.7314" stop-color="#56341A"/>
<stop offset="0.8787" stop-color="#47260F"/>
<stop offset="1" stop-color="#42210B"/>
</linearGradient>
<linearGradient id="paint37_linear" x1="500.906" y1="1307.21" x2="-239.878" y2="566.426" gradientUnits="userSpaceOnUse">
<stop stop-color="#FFD89B"/>
<stop offset="0.0397604" stop-color="#F2CC91"/>
<stop offset="0.2218" stop-color="#BD9869"/>
<stop offset="0.4" stop-color="#916D47"/>
<stop offset="0.5706" stop-color="#6F4C2D"/>
<stop offset="0.7314" stop-color="#56341A"/>
<stop offset="0.8787" stop-color="#47260F"/>
<stop offset="1" stop-color="#42210B"/>
</linearGradient>
<linearGradient id="paint38_linear" x1="457.91" y1="1350.21" x2="-282.874" y2="609.422" gradientUnits="userSpaceOnUse">
<stop stop-color="#FFD89B"/>
<stop offset="0.0397604" stop-color="#F2CC91"/>
<stop offset="0.2218" stop-color="#BD9869"/>
<stop offset="0.4" stop-color="#916D47"/>
<stop offset="0.5706" stop-color="#6F4C2D"/>
<stop offset="0.7314" stop-color="#56341A"/>
<stop offset="0.8787" stop-color="#47260F"/>
<stop offset="1" stop-color="#42210B"/>
</linearGradient>
<linearGradient id="paint39_linear" x1="543.903" y1="1264.21" x2="-196.882" y2="523.43" gradientUnits="userSpaceOnUse">
<stop stop-color="#FFD89B"/>
<stop offset="0.0397604" stop-color="#F2CC91"/>
<stop offset="0.2218" stop-color="#BD9869"/>
<stop offset="0.4" stop-color="#916D47"/>
<stop offset="0.5706" stop-color="#6F4C2D"/>
<stop offset="0.7314" stop-color="#56341A"/>
<stop offset="0.8787" stop-color="#47260F"/>
<stop offset="1" stop-color="#42210B"/>
</linearGradient>
<linearGradient id="paint40_linear" x1="429.246" y1="1378.87" x2="-311.537" y2="638.087" gradientUnits="userSpaceOnUse">
<stop stop-color="#FFD89B"/>
<stop offset="0.0397604" stop-color="#F2CC91"/>
<stop offset="0.2218" stop-color="#BD9869"/>
<stop offset="0.4" stop-color="#916D47"/>
<stop offset="0.5706" stop-color="#6F4C2D"/>
<stop offset="0.7314" stop-color="#56341A"/>
<stop offset="0.8787" stop-color="#47260F"/>
<stop offset="1" stop-color="#42210B"/>
</linearGradient>
<linearGradient id="paint41_linear" x1="629.895" y1="1178.22" x2="-110.889" y2="437.438" gradientUnits="userSpaceOnUse">
<stop stop-color="#FFD89B"/>
<stop offset="0.0397604" stop-color="#F2CC91"/>
<stop offset="0.2218" stop-color="#BD9869"/>
<stop offset="0.4" stop-color="#916D47"/>
<stop offset="0.5706" stop-color="#6F4C2D"/>
<stop offset="0.7314" stop-color="#56341A"/>
<stop offset="0.8787" stop-color="#47260F"/>
<stop offset="1" stop-color="#42210B"/>
</linearGradient>
<linearGradient id="paint42_linear" x1="644.227" y1="1163.89" x2="-96.5544" y2="423.109" gradientUnits="userSpaceOnUse">
<stop stop-color="#FFD89B"/>
<stop offset="0.0397604" stop-color="#F2CC91"/>
<stop offset="0.2218" stop-color="#BD9869"/>
<stop offset="0.4" stop-color="#916D47"/>
<stop offset="0.5706" stop-color="#6F4C2D"/>
<stop offset="0.7314" stop-color="#56341A"/>
<stop offset="0.8787" stop-color="#47260F"/>
<stop offset="1" stop-color="#42210B"/>
</linearGradient>
<linearGradient id="paint43_linear" x1="744.551" y1="1063.57" x2="3.76624" y2="322.78" gradientUnits="userSpaceOnUse">
<stop stop-color="#FFD89B"/>
<stop offset="0.0397604" stop-color="#F2CC91"/>
<stop offset="0.2218" stop-color="#BD9869"/>
<stop offset="0.4" stop-color="#916D47"/>
<stop offset="0.5706" stop-color="#6F4C2D"/>
<stop offset="0.7314" stop-color="#56341A"/>
<stop offset="0.8787" stop-color="#47260F"/>
<stop offset="1" stop-color="#42210B"/>
</linearGradient>
<linearGradient id="paint44_linear" x1="658.559" y1="1149.56" x2="-82.2241" y2="408.775" gradientUnits="userSpaceOnUse">
<stop stop-color="#FFD89B"/>
<stop offset="0.0397604" stop-color="#F2CC91"/>
<stop offset="0.2218" stop-color="#BD9869"/>
<stop offset="0.4" stop-color="#916D47"/>
<stop offset="0.5706" stop-color="#6F4C2D"/>
<stop offset="0.7314" stop-color="#56341A"/>
<stop offset="0.8787" stop-color="#47260F"/>
<stop offset="1" stop-color="#42210B"/>
</linearGradient>
<linearGradient id="paint45_linear" x1="730.219" y1="1077.9" x2="-10.5617" y2="337.116" gradientUnits="userSpaceOnUse">
<stop stop-color="#FFD89B"/>
<stop offset="0.0397604" stop-color="#F2CC91"/>
<stop offset="0.2218" stop-color="#BD9869"/>
<stop offset="0.4" stop-color="#916D47"/>
<stop offset="0.5706" stop-color="#6F4C2D"/>
<stop offset="0.7314" stop-color="#56341A"/>
<stop offset="0.8787" stop-color="#47260F"/>
<stop offset="1" stop-color="#42210B"/>
</linearGradient>
<linearGradient id="paint46_linear" x1="672.892" y1="1135.23" x2="-67.8929" y2="394.442" gradientUnits="userSpaceOnUse">
<stop stop-color="#FFD89B"/>
<stop offset="0.0397604" stop-color="#F2CC91"/>
<stop offset="0.2218" stop-color="#BD9869"/>
<stop offset="0.4" stop-color="#916D47"/>
<stop offset="0.5706" stop-color="#6F4C2D"/>
<stop offset="0.7314" stop-color="#56341A"/>
<stop offset="0.8787" stop-color="#47260F"/>
<stop offset="1" stop-color="#42210B"/>
</linearGradient>
<linearGradient id="paint47_linear" x1="715.887" y1="1092.23" x2="-24.8963" y2="351.446" gradientUnits="userSpaceOnUse">
<stop stop-color="#FFD89B"/>
<stop offset="0.0397604" stop-color="#F2CC91"/>
<stop offset="0.2218" stop-color="#BD9869"/>
<stop offset="0.4" stop-color="#916D47"/>
<stop offset="0.5706" stop-color="#6F4C2D"/>
<stop offset="0.7314" stop-color="#56341A"/>
<stop offset="0.8787" stop-color="#47260F"/>
<stop offset="1" stop-color="#42210B"/>
</linearGradient>
<linearGradient id="paint48_linear" x1="687.224" y1="1120.89" x2="-53.5602" y2="380.11" gradientUnits="userSpaceOnUse">
<stop stop-color="#FFD89B"/>
<stop offset="0.0397604" stop-color="#F2CC91"/>
<stop offset="0.2218" stop-color="#BD9869"/>
<stop offset="0.4" stop-color="#916D47"/>
<stop offset="0.5706" stop-color="#6F4C2D"/>
<stop offset="0.7314" stop-color="#56341A"/>
<stop offset="0.8787" stop-color="#47260F"/>
<stop offset="1" stop-color="#42210B"/>
</linearGradient>
<linearGradient id="paint49_linear" x1="701.555" y1="1106.56" x2="-39.227" y2="365.779" gradientUnits="userSpaceOnUse">
<stop stop-color="#FFD89B"/>
<stop offset="0.0397604" stop-color="#F2CC91"/>
<stop offset="0.2218" stop-color="#BD9869"/>
<stop offset="0.4" stop-color="#916D47"/>
<stop offset="0.5706" stop-color="#6F4C2D"/>
<stop offset="0.7314" stop-color="#56341A"/>
<stop offset="0.8787" stop-color="#47260F"/>
<stop offset="1" stop-color="#42210B"/>
</linearGradient>
<linearGradient id="paint50_linear" x1="773.215" y1="1034.9" x2="32.4317" y2="294.117" gradientUnits="userSpaceOnUse">
<stop stop-color="#FFD89B"/>
<stop offset="0.0397604" stop-color="#F2CC91"/>
<stop offset="0.2218" stop-color="#BD9869"/>
<stop offset="0.4" stop-color="#916D47"/>
<stop offset="0.5706" stop-color="#6F4C2D"/>
<stop offset="0.7314" stop-color="#56341A"/>
<stop offset="0.8787" stop-color="#47260F"/>
<stop offset="1" stop-color="#42210B"/>
</linearGradient>
<linearGradient id="paint51_linear" x1="758.884" y1="1049.23" x2="18.1013" y2="308.451" gradientUnits="userSpaceOnUse">
<stop stop-color="#FFD89B"/>
<stop offset="0.0397604" stop-color="#F2CC91"/>
<stop offset="0.2218" stop-color="#BD9869"/>
<stop offset="0.4" stop-color="#916D47"/>
<stop offset="0.5706" stop-color="#6F4C2D"/>
<stop offset="0.7314" stop-color="#56341A"/>
<stop offset="0.8787" stop-color="#47260F"/>
<stop offset="1" stop-color="#42210B"/>
</linearGradient>
<linearGradient id="paint52_linear" x1="615.563" y1="1192.55" x2="-125.223" y2="451.768" gradientUnits="userSpaceOnUse">
<stop stop-color="#FFD89B"/>
<stop offset="0.0397604" stop-color="#F2CC91"/>
<stop offset="0.2218" stop-color="#BD9869"/>
<stop offset="0.4" stop-color="#916D47"/>
<stop offset="0.5706" stop-color="#6F4C2D"/>
<stop offset="0.7314" stop-color="#56341A"/>
<stop offset="0.8787" stop-color="#47260F"/>
<stop offset="1" stop-color="#42210B"/>
</linearGradient>
<linearGradient id="paint53_linear" x1="601.231" y1="1206.89" x2="-139.551" y2="466.104" gradientUnits="userSpaceOnUse">
<stop stop-color="#FFD89B"/>
<stop offset="0.0397604" stop-color="#F2CC91"/>
<stop offset="0.2218" stop-color="#BD9869"/>
<stop offset="0.4" stop-color="#916D47"/>
<stop offset="0.5706" stop-color="#6F4C2D"/>
<stop offset="0.7314" stop-color="#56341A"/>
<stop offset="0.8787" stop-color="#47260F"/>
<stop offset="1" stop-color="#42210B"/>
</linearGradient>
</defs>
</svg>
