
<svg width="340px" height="107px" viewBox="0 0 340 107" version="1.1" xmlns="http://www.w3.org/2000/svg" xmlns:xlink="http://www.w3.org/1999/xlink">
    <defs>
        <path d="M0,0.152 L127.665,0.152 L127.665,21.514 L212.329,21.514 L212.329,0.152 L339.8,0 L339.8,83.472 L212.329,83.624 L212.329,106.482 L127.665,106.482 L127.665,83.624 L0,83.624 L0,0.152 Z M200.637,45.986 L200.953,44.148 L170.179,37.444 L139.281,44.148 L139.613,45.986 L170.191,39.496 L200.637,45.986 Z M195.341,91.626 L198.379,91.626 C198.379,91.626 198.419,88.544 198.419,74.604 C198.419,72.28 198.285,59.206 198.285,59.206 L195.415,59.206 C195.415,59.206 195.309,72.068 195.309,74.542 C195.309,88.5 195.341,91.626 195.341,91.626 L195.341,91.626 Z M184.653,91.626 L187.691,91.626 C187.691,91.626 187.731,88.544 187.731,74.604 C187.731,72.28 187.597,59.206 187.597,59.206 L184.727,59.206 C184.727,59.206 184.617,72.068 184.617,74.542 C184.617,88.5 184.653,91.626 184.653,91.626 L184.653,91.626 Z M173.965,91.626 L177.001,91.626 C177.001,91.626 177.047,88.544 177.047,74.604 C177.047,72.28 176.911,59.206 176.911,59.206 L174.039,59.206 C174.039,59.206 173.929,72.068 173.929,74.542 C173.929,88.5 173.965,91.626 173.965,91.626 L173.965,91.626 Z M163.277,91.626 L166.321,91.626 C166.321,91.626 166.355,88.544 166.355,74.604 C166.355,72.28 166.227,59.206 166.227,59.206 L163.355,59.206 C163.355,59.206 163.247,72.068 163.247,74.542 C163.247,88.5 163.277,91.626 163.277,91.626 L163.277,91.626 Z M152.595,91.626 L155.633,91.626 C155.633,91.626 155.669,88.544 155.669,74.604 C155.669,72.28 155.539,59.206 155.539,59.206 L152.669,59.206 C152.669,59.206 152.559,72.068 152.559,74.542 C152.559,88.5 152.595,91.626 152.595,91.626 L152.595,91.626 Z M141.907,91.626 L144.941,91.626 C144.941,91.626 144.981,88.544 144.981,74.604 C144.981,72.28 144.851,59.206 144.851,59.206 L141.977,59.206 C141.977,59.206 141.871,72.068 141.871,74.542 C141.871,88.5 141.907,91.626 141.907,91.626 L141.907,91.626 Z" id="path-1"></path>
    </defs>
    <g id="Page-1" stroke="none" stroke-width="1" fill="none" fill-rule="evenodd">
        <g id="logo" transform="translate(0.000000, -215.000000)">
            <g id="Clipped" transform="translate(0.000000, 215.000000)">
                <mask id="mask-2" fill="white">
                    <use xlink:href="#path-1"></use>
                </mask>
                <g id="c"></g>
                <polygon id="Path" fill="#FFFFFF" mask="url(#mask-2)" points="0 106.52 339.84 106.52 339.84 -0.04 0 -0.04"></polygon>
            </g>
        </g>
    </g>
</svg>
