<svg width="93" height="68" viewBox="0 0 93 68" fill="none" xmlns="http://www.w3.org/2000/svg">
<path d="M50.2836 65.1726C48.063 65.1726 45.85 65.1726 43.6293 65.1726C39.6336 65.1726 35.6457 65.1726 31.65 65.1726C30.2054 65.1726 28.7685 65.1726 27.3239 65.1726C26.9551 65.1726 26.5939 65.1726 26.2251 65.1726C26.1559 65.1726 26.0791 65.1726 26.0099 65.1726C25.887 65.1726 25.7641 65.1649 25.6488 65.1572C25.3799 65.1418 25.8102 65.2034 25.5489 65.1418C25.4644 65.1188 25.3799 65.1111 25.303 65.088C25.2185 65.0649 25.1417 65.0418 25.0571 65.0188C25.0033 65.0034 24.9496 64.9803 24.9034 64.9649C24.9957 65.0034 24.988 65.0034 24.8881 64.9572C24.7421 64.888 24.5961 64.8111 24.4501 64.7188C24.3809 64.6726 24.3118 64.6264 24.2503 64.5803C24.404 64.6957 24.1965 64.5341 24.1812 64.5188C24.0582 64.4111 23.943 64.2957 23.8354 64.1726C23.82 64.1572 23.6586 63.9418 23.7739 64.1034C23.7124 64.0111 23.651 63.9264 23.5895 63.8264C23.2821 63.3264 23.1822 62.9111 23.1746 62.3495C23.1746 62.2649 23.1746 62.1803 23.1746 62.0957C23.1746 61.5111 23.1746 60.9264 23.1746 60.3341C23.1746 57.8111 23.1746 55.288 23.1746 52.7649C23.1746 49.0649 23.1746 45.3572 23.1746 41.6572C23.1746 37.5265 23.1746 33.388 23.1746 29.2572C23.1746 25.4418 23.1746 21.6188 23.1746 17.8034C23.1746 15.0495 23.1746 12.288 23.1746 9.53415C23.1746 8.788 23.1746 8.04185 23.1746 7.29569C23.1746 7.11877 23.1746 6.94185 23.1746 6.76493C23.1746 6.73416 23.1746 6.70339 23.1746 6.67262C23.1746 6.54954 23.1822 6.43416 23.1899 6.31877C23.2053 6.04954 23.1438 6.48031 23.2053 6.21877C23.2283 6.13416 23.236 6.04954 23.2591 5.97262C23.2744 5.91877 23.2898 5.86493 23.3052 5.81108C23.3129 5.78031 23.4358 5.45723 23.359 5.63416C23.4204 5.48031 23.505 5.33416 23.5895 5.19569C23.6356 5.12646 23.6817 5.05723 23.7278 4.988C23.8661 4.77262 23.6125 5.10339 23.7816 4.91108C23.8892 4.788 23.9967 4.66493 24.1197 4.55723C24.1812 4.50339 24.2426 4.44954 24.3041 4.39569C24.1581 4.51108 24.427 4.31877 24.4501 4.29569C24.5884 4.20339 24.7344 4.13416 24.8881 4.05723C25.1186 3.94185 24.7267 4.09569 24.9803 4.02646C25.0571 4.00339 25.1417 3.97262 25.2185 3.94954C25.303 3.92646 25.3799 3.90339 25.4644 3.888C25.4874 3.88031 25.7641 3.84185 25.5566 3.86493C25.7026 3.84954 25.8486 3.84185 25.9946 3.84185C26.179 3.84185 26.3557 3.84185 26.5401 3.84185C27.7312 3.84185 28.9145 3.84185 30.1055 3.84185C34.0243 3.84185 37.9508 3.84185 41.8697 3.84185C44.6052 3.84185 47.3484 3.84185 50.0839 3.84185C50.1453 3.84185 50.2145 3.84185 50.276 3.84185C50.422 3.84185 50.5756 3.84954 50.7216 3.86493C50.5218 3.84185 50.7985 3.88031 50.8138 3.888C50.8984 3.90339 50.9752 3.92646 51.0597 3.94954C51.1442 3.97262 51.2211 4.00339 51.2979 4.02646C51.3978 4.06493 51.4055 4.06493 51.3133 4.02646C51.3671 4.04954 51.4132 4.07262 51.467 4.0957C51.613 4.16493 51.759 4.24954 51.8973 4.34185C51.9126 4.34954 52.1278 4.51108 51.9741 4.39569C52.0356 4.44954 52.0971 4.50339 52.1585 4.55723C52.2815 4.66493 52.3891 4.788 52.4966 4.91108C52.6657 5.10339 52.4121 4.77262 52.5504 4.988C52.6119 5.08031 52.6734 5.17262 52.7271 5.26493C52.7656 5.33416 52.804 5.41108 52.8424 5.48031C52.8501 5.50339 52.95 5.74954 52.8808 5.56493C52.9423 5.72646 52.9884 5.88031 53.0268 6.04954C53.0499 6.13416 53.0652 6.21877 53.0729 6.30339C53.0422 6.10339 53.0806 6.38031 53.0806 6.40339C53.0883 6.488 53.0883 6.58031 53.0883 6.66492C53.0883 6.988 53.0883 7.30339 53.0883 7.62646C53.0883 9.74954 53.0883 11.8803 53.0883 14.0034C53.0883 17.488 53.0883 20.9726 53.0883 24.4572C53.0883 28.5572 53.0883 32.6495 53.0883 36.7495C53.0883 40.7111 53.0883 44.6803 53.0883 48.6418C53.0883 51.7264 53.0883 54.8111 53.0883 57.888C53.0883 59.3418 53.0883 60.8034 53.0883 62.2572C53.0883 62.288 53.0883 62.3188 53.0883 62.3495C53.0883 62.4726 53.0806 62.588 53.0729 62.7034C53.0576 62.9726 53.119 62.5418 53.0576 62.8034C53.0345 62.888 53.0268 62.9726 53.0038 63.0495C52.9807 63.1341 52.9577 63.2111 52.9346 63.2957C52.9269 63.3111 52.8347 63.5726 52.9039 63.388C52.8424 63.5418 52.7579 63.688 52.6734 63.8264C52.6273 63.8957 52.5812 63.9649 52.535 64.0341C52.3967 64.2495 52.6503 63.9188 52.4813 64.1111C52.3737 64.2341 52.2661 64.3572 52.1432 64.4649C52.0817 64.5188 52.0202 64.5726 51.9587 64.6264C52.1124 64.5034 51.8973 64.6649 51.8819 64.6803C51.7436 64.7726 51.5976 64.8572 51.4516 64.9264C51.4286 64.9341 51.1827 65.0341 51.3671 64.9649C51.2902 64.9957 51.2134 65.0187 51.1289 65.0495C50.9675 65.1034 50.7985 65.1341 50.6371 65.1649C50.8369 65.1341 50.5603 65.1726 50.5372 65.1726C50.4527 65.1726 50.3682 65.1726 50.2836 65.1726C49.7919 65.1803 49.3692 65.588 49.3692 66.088C49.3692 66.5803 49.7842 67.0034 50.2836 67.0034C52.8578 66.9726 54.9248 64.8726 54.9324 62.2957C54.9324 61.8495 54.9324 61.4111 54.9324 60.9649C54.9324 60.0034 54.9324 59.0418 54.9324 58.088C54.9324 56.7034 54.9324 55.3111 54.9324 53.9264C54.9324 52.2188 54.9324 50.5111 54.9324 48.8111C54.9324 46.8649 54.9324 44.9265 54.9324 42.9803C54.9324 40.9188 54.9324 38.8495 54.9324 36.788C54.9324 34.6803 54.9324 32.5649 54.9324 30.4572C54.9324 28.4188 54.9324 26.3803 54.9324 24.3418C54.9324 22.4572 54.9324 20.5649 54.9324 18.6803C54.9324 17.0572 54.9324 15.4342 54.9324 13.8111C54.9324 12.5342 54.9324 11.2572 54.9324 9.98031C54.9324 9.15723 54.9324 8.33416 54.9324 7.51108C54.9324 7.11877 54.9555 6.71877 54.9171 6.32646C54.7711 4.71877 53.826 3.21877 52.3506 2.51108C51.636 2.15723 50.8907 2.00339 50.1069 2.00339C49.1387 2.00339 48.1782 2.00339 47.21 2.00339C45.4274 2.00339 43.6447 2.00339 41.862 2.00339C39.7873 2.00339 37.705 2.00339 35.6303 2.00339C33.7477 2.00339 31.8651 2.00339 29.9749 2.00339C28.8069 2.00339 27.6389 2.00339 26.471 2.00339C26.2481 2.00339 26.033 1.9957 25.8102 2.01108C24.2119 2.08031 22.7058 2.988 21.9297 4.40339C21.4457 5.28031 21.3458 6.21877 21.3458 7.188C21.3458 7.91108 21.3458 8.64185 21.3458 9.36492C21.3458 10.5572 21.3458 11.7495 21.3458 12.9342C21.3458 14.5034 21.3458 16.0726 21.3458 17.6418C21.3458 19.4803 21.3458 21.3111 21.3458 23.1495C21.3458 25.1726 21.3458 27.1957 21.3458 29.2188C21.3458 31.3111 21.3458 33.4111 21.3458 35.5034C21.3458 37.5803 21.3458 39.6649 21.3458 41.7418C21.3458 43.7188 21.3458 45.6957 21.3458 47.6726C21.3458 49.4341 21.3458 51.188 21.3458 52.9495C21.3458 54.4111 21.3458 55.8726 21.3458 57.3341C21.3458 58.388 21.3458 59.4341 21.3458 60.488C21.3458 61.0418 21.3458 61.5957 21.3458 62.1572C21.3458 64.0034 22.3063 65.788 24.0428 66.5572C25.1032 67.0264 26.1559 66.9957 27.2778 66.9957C28.7224 66.9957 30.1747 66.9957 31.6192 66.9957C33.6248 66.9957 35.6303 66.9957 37.6358 66.9957C39.6721 66.9957 41.7083 66.9957 43.7446 66.9957C45.3198 66.9957 46.9027 66.9957 48.4779 66.9957C49.0773 66.9957 49.6843 66.9957 50.2836 66.9957C50.7754 66.9957 51.198 66.5726 51.198 66.0803C51.1903 65.5957 50.7754 65.1726 50.2836 65.1726Z" fill="#F8D196"/>
<path d="M53.5417 22.2033C53.5417 22.5187 53.5417 22.8264 53.5417 23.1418C53.5417 23.888 53.5417 24.6418 53.5417 25.388C53.5417 26.288 53.5417 27.1957 53.5417 28.0957C53.5417 28.8803 53.5417 29.6649 53.5417 30.4495C53.5417 30.8264 53.534 31.211 53.5417 31.588C53.5417 31.5956 53.5417 31.5956 53.5417 31.6033C53.5417 31.8341 53.6415 32.0803 53.8106 32.2495C53.972 32.411 54.2255 32.5264 54.4561 32.5187C54.9478 32.4956 55.3705 32.1187 55.3705 31.6033C55.3705 31.288 55.3705 30.9803 55.3705 30.6649C55.3705 29.9187 55.3705 29.1649 55.3705 28.4187C55.3705 27.5187 55.3705 26.611 55.3705 25.711C55.3705 24.9264 55.3705 24.1418 55.3705 23.3572C55.3705 22.9803 55.3781 22.5957 55.3705 22.2187C55.3705 22.211 55.3705 22.211 55.3705 22.2033C55.3705 21.9726 55.2706 21.7264 55.1015 21.5572C54.9401 21.3957 54.6866 21.2803 54.4561 21.288C53.9566 21.311 53.5417 21.688 53.5417 22.2033Z" fill="#F8D196"/>
<path d="M21 20.988C21 21.588 21 22.1957 21 22.7957C21 23.7572 21 24.7188 21 25.6803C21 25.8957 21 26.1188 21 26.3342C21 26.5649 21.0999 26.8111 21.2689 26.9803C21.4303 27.1418 21.6839 27.2572 21.9144 27.2495C22.4062 27.2265 22.8288 26.8495 22.8288 26.3342C22.8288 25.7342 22.8288 25.1265 22.8288 24.5265C22.8288 23.5649 22.8288 22.6034 22.8288 21.6419C22.8288 21.4265 22.8288 21.2034 22.8288 20.988C22.8288 20.7572 22.7289 20.5111 22.5598 20.3419C22.3985 20.1803 22.1449 20.0649 21.9144 20.0726C21.4149 20.0957 21 20.4726 21 20.988Z" fill="#F8D196"/>
<path d="M21.0845 12.8418C21.0845 13.5802 21.0845 14.3264 21.0845 15.0648C21.0845 15.1725 21.0845 15.2802 21.0845 15.3879C21.0845 15.6187 21.1844 15.8648 21.3535 16.0341C21.5148 16.1956 21.7684 16.311 21.9989 16.3033C22.4907 16.2802 22.9133 15.9033 22.9133 15.3879C22.9133 14.6495 22.9133 13.9033 22.9133 13.1648C22.9133 13.0572 22.9133 12.9495 22.9133 12.8418C22.9133 12.611 22.8134 12.3648 22.6444 12.1956C22.483 12.0341 22.2294 11.9187 21.9989 11.9264C21.5072 11.9495 21.0845 12.3341 21.0845 12.8418Z" fill="#F8D196"/>
<path d="M21 27.7187C21 28.3187 21 28.9264 21 29.5264C21 30.4879 21 31.4495 21 32.411C21 32.6264 21 32.8495 21 33.0649C21 33.2956 21.0999 33.5418 21.2689 33.711C21.4303 33.8726 21.6839 33.9879 21.9144 33.9803C22.4062 33.9572 22.8288 33.5803 22.8288 33.0649C22.8288 32.4649 22.8288 31.8572 22.8288 31.2572C22.8288 30.2956 22.8288 29.3341 22.8288 28.3726C22.8288 28.1572 22.8288 27.9341 22.8288 27.7187C22.8288 27.488 22.7289 27.2418 22.5598 27.0726C22.3985 26.911 22.1449 26.7956 21.9144 26.8033C21.4149 26.8341 21 27.211 21 27.7187Z" fill="#F8D196"/>
<path d="M57.4912 34.4573C58.0752 34.4573 58.6515 34.4573 59.2355 34.4573C60.7185 34.4573 62.2015 34.4573 63.6845 34.4573C65.7054 34.4573 67.7263 34.4573 69.7472 34.4573C71.9141 34.4573 74.081 34.4573 76.2478 34.4573C78.1996 34.4573 80.159 34.4573 82.1107 34.4573C83.4554 34.4573 84.8078 34.4573 86.1525 34.4573C86.4906 34.4573 86.821 34.4573 87.1591 34.4573C87.2206 34.4573 87.282 34.4573 87.3435 34.4573C87.5049 34.4573 87.6586 34.4727 87.8199 34.4881C87.4895 34.465 87.8045 34.4881 87.8968 34.5112C87.989 34.5266 88.0735 34.5497 88.158 34.5804C88.2425 34.6035 88.3271 34.6343 88.4116 34.665C88.4423 34.6727 88.4654 34.6881 88.4961 34.6958C88.6421 34.7497 88.2656 34.5881 88.4807 34.6958C88.6421 34.7727 88.7958 34.8573 88.9418 34.9573C89.0186 35.0035 89.0878 35.0573 89.1569 35.1112C88.888 34.9266 89.18 35.1343 89.2415 35.1958C89.3644 35.3112 89.4797 35.4343 89.5872 35.565C89.6333 35.6189 89.6948 35.7189 89.5411 35.5035C89.5642 35.542 89.5949 35.5727 89.618 35.6112C89.6794 35.6958 89.7332 35.7804 89.787 35.8727C89.8331 35.9497 89.8715 36.0266 89.91 36.1035C89.933 36.142 89.9484 36.1804 89.9637 36.2266C90.0406 36.3804 89.8792 36.0112 89.9407 36.1727C90.0098 36.3573 90.0713 36.542 90.1097 36.7343C90.1251 36.8189 90.1405 36.8958 90.1558 36.9804C90.1789 37.1035 90.1251 36.7266 90.1482 36.8958C90.1558 36.942 90.1558 36.9881 90.1635 37.0343C90.1712 37.1266 90.1712 37.2266 90.1712 37.3189C90.1712 37.5343 90.1712 37.742 90.1712 37.9573C90.1712 39.2573 90.1712 40.565 90.1712 41.865C90.1712 43.8804 90.1712 45.8958 90.1712 47.9112C90.1712 50.0496 90.1712 52.1958 90.1712 54.3343C90.1712 56.0496 90.1712 57.7573 90.1712 59.4727C90.1712 60.1881 90.1712 60.9112 90.1712 61.6266C90.1712 61.765 90.1635 61.9035 90.1482 62.0496C90.1328 62.1958 90.1635 61.9419 90.1635 61.9419C90.1635 61.9804 90.1482 62.0343 90.1405 62.0804C90.1174 62.1881 90.0944 62.2881 90.0713 62.3881C90.0483 62.4727 90.0175 62.5573 89.9868 62.6419C89.9714 62.6804 89.9561 62.7266 89.9407 62.765C89.8792 62.9266 90.0406 62.5573 89.9637 62.7112C89.8792 62.8881 89.7947 63.0496 89.6871 63.2112C89.641 63.2881 89.5872 63.3573 89.5334 63.4266C89.7102 63.1727 89.5642 63.3881 89.5104 63.4419C89.3874 63.5881 89.2491 63.7189 89.1031 63.8419C89.0494 63.8881 88.9187 63.9727 89.1492 63.8112C89.1108 63.8343 89.0801 63.865 89.0417 63.8881C88.9725 63.9419 88.8957 63.9881 88.8188 64.0343C88.742 64.0804 88.6652 64.1266 88.5883 64.165C88.5499 64.1881 88.5115 64.2035 88.4654 64.2266C88.2502 64.3266 88.6267 64.165 88.4807 64.2266C88.3271 64.2881 88.1734 64.3343 88.012 64.3804C87.9275 64.4035 87.8353 64.4189 87.7431 64.4343C87.6739 64.4496 87.5126 64.4496 87.8046 64.4266C87.7431 64.4343 87.6816 64.4419 87.6201 64.4419C87.5202 64.4496 87.4203 64.4496 87.3205 64.4496C87.2513 64.4496 87.1821 64.4496 87.1207 64.4496C86.1832 64.4496 85.2535 64.4496 84.316 64.4496C82.6102 64.4496 80.9043 64.4496 79.1985 64.4496C77.0931 64.4496 74.9877 64.4496 72.8823 64.4496C70.7384 64.4496 68.5946 64.4496 66.4508 64.4496C64.6681 64.4496 62.8854 64.4496 61.1027 64.4496C60.0346 64.4496 58.9742 64.4496 57.9062 64.4496C57.7679 64.4496 57.6219 64.4496 57.4836 64.4496C57.0071 64.4496 56.5538 64.8727 56.5692 65.365C56.5922 65.8573 56.9687 66.2804 57.4836 66.2804C58.0675 66.2804 58.6592 66.2804 59.2432 66.2804C60.7492 66.2804 62.2553 66.2804 63.7614 66.2804C65.7899 66.2804 67.8185 66.2804 69.8394 66.2804C72.0293 66.2804 74.2116 66.2804 76.4015 66.2804C78.3456 66.2804 80.2896 66.2804 82.2337 66.2804C83.5707 66.2804 84.9077 66.2804 86.2447 66.2804C86.5597 66.2804 86.8748 66.2804 87.1898 66.2804C88.0274 66.2804 88.8419 66.1112 89.5872 65.7035C91.0626 64.9035 91.9846 63.2958 91.9923 61.6266C91.9923 61.4266 91.9923 61.2266 91.9923 61.0266C91.9923 59.7189 91.9923 58.4189 91.9923 57.1112C91.9923 55.0958 91.9923 53.0804 91.9923 51.0727C91.9923 48.9112 91.9923 46.7496 91.9923 44.5804C91.9923 42.865 91.9923 41.1497 91.9923 39.4343C91.9923 38.7266 91.9923 38.0266 91.9923 37.3189C91.9846 35.5958 90.9934 33.9189 89.4336 33.165C88.7189 32.8189 87.9659 32.665 87.1745 32.665C86.2754 32.665 85.3764 32.665 84.4697 32.665C82.7639 32.665 81.058 32.665 79.3522 32.665C77.2391 32.665 75.126 32.665 73.0129 32.665C70.8537 32.665 68.7022 32.665 66.543 32.665C64.7372 32.665 62.9315 32.665 61.1181 32.665C60.05 32.665 58.9742 32.665 57.9062 32.665C57.7602 32.665 57.6142 32.665 57.4759 32.665C56.9995 32.665 56.5461 33.0881 56.5615 33.5804C56.5999 34.042 56.9764 34.4573 57.4912 34.4573Z" fill="#F8D196"/>
<path d="M71.8218 64.865C71.5068 64.865 71.1994 64.865 70.8844 64.865C70.1391 64.865 69.386 64.865 68.6407 64.865C67.7417 64.865 66.8349 64.865 65.9359 64.865C65.1522 64.865 64.3684 64.865 63.5846 64.865C63.2081 64.865 62.8239 64.8573 62.4474 64.865C62.4397 64.865 62.4397 64.865 62.432 64.865C62.2015 64.865 61.9556 64.965 61.7866 65.1342C61.6252 65.2958 61.51 65.5496 61.5176 65.7804C61.5407 66.2727 61.9172 66.6957 62.432 66.6957C62.7471 66.6957 63.0544 66.6957 63.3695 66.6957C64.1148 66.6957 64.8678 66.6957 65.6132 66.6957C66.5122 66.6957 67.4189 66.6957 68.3179 66.6957C69.1017 66.6957 69.8855 66.6957 70.6692 66.6957C71.0458 66.6957 71.43 66.7034 71.8065 66.6957C71.8142 66.6957 71.8142 66.6957 71.8218 66.6957C72.0524 66.6957 72.2982 66.5957 72.4673 66.4265C72.6287 66.265 72.7439 66.0111 72.7362 65.7804C72.7132 65.2804 72.3367 64.865 71.8218 64.865Z" fill="#F8D196"/>
<path d="M73.0436 32.2881C72.4443 32.2881 71.8372 32.2881 71.2379 32.2881C70.2774 32.2881 69.3169 32.2881 68.3564 32.2881C68.1413 32.2881 67.9184 32.2881 67.7033 32.2881C67.4727 32.2881 67.2269 32.3881 67.0578 32.5573C66.8965 32.7189 66.7812 32.9727 66.7889 33.2035C66.8119 33.6958 67.1884 34.1189 67.7033 34.1189C68.3026 34.1189 68.9096 34.1189 69.509 34.1189C70.4695 34.1189 71.43 34.1189 72.3905 34.1189C72.6056 34.1189 72.8285 34.1189 73.0436 34.1189C73.2741 34.1189 73.52 34.0189 73.6891 33.8496C73.8504 33.6881 73.9657 33.4342 73.958 33.2035C73.9273 32.7035 73.5508 32.2881 73.0436 32.2881Z" fill="#F8D196"/>
<path d="M81.1733 32.3727C80.4356 32.3727 79.6903 32.3727 78.9526 32.3727C78.845 32.3727 78.7375 32.3727 78.6299 32.3727C78.3994 32.3727 78.1535 32.4727 77.9844 32.6419C77.8231 32.8035 77.7078 33.0573 77.7155 33.2881C77.7385 33.7804 78.1151 34.2035 78.6299 34.2035C79.3675 34.2035 80.1129 34.2035 80.8506 34.2035C80.9581 34.2035 81.0657 34.2035 81.1733 34.2035C81.4038 34.2035 81.6497 34.1035 81.8187 33.9342C81.9801 33.7727 82.0954 33.5188 82.0877 33.2881C82.0646 32.7958 81.6881 32.3727 81.1733 32.3727Z" fill="#F8D196"/>
<path d="M66.3125 32.2881C65.7131 32.2881 65.1061 32.2881 64.5067 32.2881C63.5462 32.2881 62.5857 32.2881 61.6252 32.2881C61.4101 32.2881 61.1873 32.2881 60.9721 32.2881C60.7416 32.2881 60.4957 32.3881 60.3266 32.5573C60.1653 32.7189 60.05 32.9727 60.0577 33.2035C60.0808 33.6958 60.4573 34.1189 60.9721 34.1189C61.5715 34.1189 62.1785 34.1189 62.7778 34.1189C63.7383 34.1189 64.6988 34.1189 65.6593 34.1189C65.8745 34.1189 66.0973 34.1189 66.3125 34.1189C66.543 34.1189 66.7889 34.0189 66.9579 33.8496C67.1193 33.6881 67.2345 33.4342 67.2269 33.2035C67.2038 32.7035 66.8273 32.2881 66.3125 32.2881Z" fill="#F8D196"/>
<path d="M60.3036 3.83419H61.6636H65.3289H70.7615H77.3927H77.8461H78.0689L78.2764 3.84188C78.553 3.84188 78.8297 3.86496 79.0986 3.88803C79.6442 3.94188 80.1897 4.04957 80.7199 4.20342C81.2501 4.35727 81.7649 4.54957 82.2644 4.78803C82.7639 5.0265 83.2326 5.31111 83.6859 5.6265C84.6003 6.28034 85.3995 7.08034 86.0372 8.00342C86.675 8.9265 87.1591 9.95726 87.4357 11.0419C87.5663 11.5419 87.6586 12.0573 87.7123 12.5726L87.7431 12.965C87.7508 13.0957 87.7508 13.2265 87.7584 13.3573L87.7661 13.5573V13.7727V14.1957V17.6034V23.388V27.5419C87.7661 28.1957 87.7584 28.8496 87.7661 29.5034V29.588C87.7661 30.1188 88.1887 30.6265 88.6805 30.6034C89.1723 30.5803 89.5949 30.1573 89.5949 29.588V28.2265V24.5573V19.1188V15.8034V14.1419V13.7265V13.5188L89.5872 13.2957C89.5795 13.1496 89.5872 12.9957 89.5719 12.8496L89.5411 12.4034C89.4105 11.1034 89.0647 9.81111 88.5038 8.6265C87.9429 7.44188 87.1821 6.34957 86.2601 5.4188C85.3226 4.47265 84.2238 3.69573 83.0174 3.1188C81.8187 2.54188 80.5124 2.19573 79.1831 2.06496L78.7221 2.0265C78.5684 2.0188 78.4147 2.0188 78.261 2.01111C78.092 2.00342 77.9537 2.00342 77.8154 2.00342H77.3927H75.6869H72.2829H66.5045H62.3552C61.702 2.00342 61.0489 1.99573 60.3958 2.00342H60.3112C59.7811 2.00342 59.2739 2.4265 59.297 2.9188C59.3123 3.41111 59.7349 3.83419 60.3036 3.83419Z" fill="#F8D196"/>
<path d="M89.3183 28.865L87.1975 26.5035L86.8978 26.1727C86.7288 25.9881 86.4906 25.8727 86.2524 25.8727C86.0296 25.8727 85.7606 25.9804 85.6069 26.1727C85.2765 26.5804 85.2458 27.2034 85.6069 27.6111L87.7277 29.9727L88.0274 30.3034C88.1964 30.4881 88.4346 30.6034 88.6728 30.6034C88.8957 30.6034 89.1646 30.4958 89.3183 30.3034C89.6487 29.8958 89.6794 29.265 89.3183 28.865Z" fill="#F8D196"/>
<path d="M89.3183 30.3034L91.4391 27.9418L91.7387 27.6111C91.9078 27.4265 92.0077 27.1572 92.0077 26.8957C92.0077 26.6495 91.9078 26.3495 91.7387 26.1803C91.3776 25.8111 90.809 25.7803 90.4478 26.1803L88.3271 28.5418L88.0274 28.8726C87.8583 29.0572 87.7585 29.3265 87.7585 29.588C87.7585 29.8342 87.8583 30.1342 88.0274 30.3034C88.3885 30.6726 88.9571 30.7034 89.3183 30.3034Z" fill="#F8D196"/>
</svg>
