<svg width="1036" height="1019" viewBox="0 0 1036 1019" fill="none" xmlns="http://www.w3.org/2000/svg" opacity=".5"><path d="M847.707 1019L1036 830.707v-1.422L846.285 1019h1.422z" fill="url(#paint0_linear)"/><path d="M704.289 1019L1036 687.289v-1.293L702.996 1019h1.293z" fill="url(#paint1_linear)"/><path d="M876.287 1019L1036 859.287v-1.293L874.994 1019h1.293z" fill="url(#paint2_linear)"/><path d="M646.999 1019L1036 629.999v-1.422L645.577 1019h1.422z" fill="url(#paint3_linear)"/><path d="M675.709 1019L1036 658.709v-1.423L674.286 1019h1.423z" fill="url(#paint4_linear)"/><path d="M1019.58 1019l16.42-16.42v-1.3l-17.72 17.72h1.3z" fill="url(#paint5_linear)"/><path d="M761.708 1019L1036 744.708v-1.423L760.285 1019h1.423z" fill="url(#paint6_linear)"/><path d="M990.996 1019L1036 973.996v-1.423L989.573 1019h1.423z" fill="url(#paint7_linear)"/><path d="M790.288 1019L1036 773.288v-1.293L788.995 1019h1.293z" fill="url(#paint8_linear)"/><path d="M933.706 1019L1036 916.706v-1.422L932.284 1019h1.422z" fill="url(#paint9_linear)"/><path d="M818.998 1019L1036 801.998v-1.423L817.575 1019h1.423z" fill="url(#paint10_linear)"/><path d="M904.997 1019L1036 887.997v-1.423L903.574 1019h1.423z" fill="url(#paint11_linear)"/><path d="M732.998 1019L1036 715.999v-1.423L731.576 1019h1.422z" fill="url(#paint12_linear)"/><path d="M962.286 1019L1036 945.286v-1.293L960.993 1019h1.293z" fill="url(#paint13_linear)"/><path d="M561 1019l475-475v-1.422L559.578 1019H561z" fill="url(#paint14_linear)"/><path d="M532.291 1019L1036 515.291v-1.293L530.997 1019h1.294z" fill="url(#paint15_linear)"/><path d="M331.712 1019L1036 314.712v-1.422L330.29 1019h1.422z" fill="url(#paint16_linear)"/><path d="M503.71 1019L1036 486.711v-1.423L502.288 1019h1.422z" fill="url(#paint17_linear)"/><path d="M360.422 1019L1036 343.422v-1.423L358.999 1019h1.423z" fill="url(#paint18_linear)"/><path d="M475.001 1019L1036 458.001v-1.293L473.708 1019h1.293z" fill="url(#paint19_linear)"/><path d="M389.002 1019L1036 372.002v-1.294L387.709 1019h1.293z" fill="url(#paint20_linear)"/><path d="M446.421 1019L1036 429.421v-1.422L444.998 1019h1.423z" fill="url(#paint21_linear)"/><path d="M417.711 1019L1036 400.712v-1.423L416.289 1019h1.422z" fill="url(#paint22_linear)"/><path d="M273 1019h1.423L1036 257.423V256l-763 763z" fill="url(#paint23_linear)"/><path d="M303.003 1019L1036 286.003v-1.294L301.71 1019h1.293z" fill="url(#paint24_linear)"/><path d="M589.71 1019L1036 572.71v-1.423L588.287 1019h1.423z" fill="url(#paint25_linear)"/><path d="M618.29 1019L1036 601.29v-1.293L616.997 1019h1.293z" fill="url(#paint26_linear)"/><path d="M1041.34 192.488L784.552 0h-1.94l258.728 193.942v-1.454z" fill="url(#paint27_linear)"/><path d="M1041.34 339.102L588.965 0h-1.764l454.139 340.424v-1.322z" fill="url(#paint28_linear)"/><path d="M1041.34 163.271L823.528 0h-1.764l219.576 164.593v-1.322z" fill="url(#paint29_linear)"/><path d="M1041.34 397.668L510.836 0h-1.94l532.444 399.122v-1.454z" fill="url(#paint30_linear)"/><path d="M1041.34 368.319L549.989 0h-1.94l493.291 369.773v-1.454z" fill="url(#paint31_linear)"/><path d="M1041.34 16.658L1018.94 0h-1.77l24.17 18.112v-1.454z" fill="url(#paint32_linear)"/><path d="M1041.34 280.403L667.27 0h-1.94l376.01 281.858v-1.455z" fill="url(#paint33_linear)"/><path d="M1041.34 46.007L979.962 0h-1.94l63.318 47.461v-1.454z" fill="url(#paint34_linear)"/><path d="M1041.34 251.186L706.247 0h-1.764l336.857 252.508v-1.322z" fill="url(#paint35_linear)"/><path d="M1041.34 104.573L901.833 0h-1.94l141.447 106.027v-1.454z" fill="url(#paint36_linear)"/><path d="M1041.34 221.837L745.399 0h-1.94l297.881 223.292v-1.455z" fill="url(#paint37_linear)"/><path d="M1041.34 133.922L862.68 0h-1.94l180.6 135.376v-1.454z" fill="url(#paint38_linear)"/><path d="M1041.34 309.753L628.118 0h-1.94l415.162 311.207v-1.454z" fill="url(#paint39_linear)"/><path d="M1041.34 75.356L940.809 0h-1.763l102.294 76.678v-1.322z" fill="url(#paint40_linear)"/><path d="M1041.34 485.583L393.555 0h-1.94l649.725 487.037v-1.454z" fill="url(#paint41_linear)"/><path d="M1041.34 514.932L354.402 0h-1.763l688.701 516.254v-1.322z" fill="url(#paint42_linear)"/><path d="M1041.34 719.98L80.863 0h-1.94l962.417 721.434v-1.454z" fill="url(#paint43_linear)"/><path d="M1041.34 544.149L315.426 0h-1.94l727.854 545.603v-1.454z" fill="url(#paint44_linear)"/><path d="M1041.34 690.631L120.016 0h-1.94l923.264 692.085v-1.454z" fill="url(#paint45_linear)"/><path d="M1041.34 573.498L276.273 0h-1.763l766.83 574.82v-1.322z" fill="url(#paint46_linear)"/><path d="M1041.34 661.414L158.992 0h-1.764l884.112 662.736v-1.322z" fill="url(#paint47_linear)"/><path d="M1041.34 602.715L237.297 0h-1.94l805.983 604.169v-1.454z" fill="url(#paint48_linear)"/><path d="M1041.34 632.064L198.145 0h-1.94l845.135 633.519v-1.455z" fill="url(#paint49_linear)"/><path d="M2.734 0H.794L1041.34 780v-1.454L2.734 0z" fill="url(#paint50_linear)"/><path d="M1041.34 749.329L41.71 0h-1.763L1041.34 750.651v-1.322z" fill="url(#paint51_linear)"/><path d="M1041.34 456.234L432.708 0h-1.94l610.572 457.688v-1.454z" fill="url(#paint52_linear)"/><path d="M1041.34 427.017L471.684 0h-1.764l571.42 428.339v-1.322z" fill="url(#paint53_linear)"/><defs><linearGradient id="paint0_linear" x1="549.425" y1="1316.54" x2="1290.21" y2="575.758" gradientUnits="userSpaceOnUse"><stop stop-color="#FFD89B"/><stop offset=".04" stop-color="#F2CC91"/><stop offset=".222" stop-color="#BD9869"/><stop offset=".4" stop-color="#916D47"/><stop offset=".571" stop-color="#6F4C2D"/><stop offset=".731" stop-color="#56341A"/><stop offset=".879" stop-color="#47260F"/><stop offset="1" stop-color="#42210B"/></linearGradient><linearGradient id="paint1_linear" x1="477.765" y1="1244.88" x2="1218.55" y2="504.097" gradientUnits="userSpaceOnUse"><stop stop-color="#FFD89B"/><stop offset=".04" stop-color="#F2CC91"/><stop offset=".222" stop-color="#BD9869"/><stop offset=".4" stop-color="#916D47"/><stop offset=".571" stop-color="#6F4C2D"/><stop offset=".731" stop-color="#56341A"/><stop offset=".879" stop-color="#47260F"/><stop offset="1" stop-color="#42210B"/></linearGradient><linearGradient id="paint2_linear" x1="563.758" y1="1330.87" x2="1304.54" y2="590.09" gradientUnits="userSpaceOnUse"><stop stop-color="#FFD89B"/><stop offset=".04" stop-color="#F2CC91"/><stop offset=".222" stop-color="#BD9869"/><stop offset=".4" stop-color="#916D47"/><stop offset=".571" stop-color="#6F4C2D"/><stop offset=".731" stop-color="#56341A"/><stop offset=".879" stop-color="#47260F"/><stop offset="1" stop-color="#42210B"/></linearGradient><linearGradient id="paint3_linear" x1="449.101" y1="1216.22" x2="1189.89" y2="475.433" gradientUnits="userSpaceOnUse"><stop stop-color="#FFD89B"/><stop offset=".04" stop-color="#F2CC91"/><stop offset=".222" stop-color="#BD9869"/><stop offset=".4" stop-color="#916D47"/><stop offset=".571" stop-color="#6F4C2D"/><stop offset=".731" stop-color="#56341A"/><stop offset=".879" stop-color="#47260F"/><stop offset="1" stop-color="#42210B"/></linearGradient><linearGradient id="paint4_linear" x1="463.433" y1="1230.55" x2="1204.22" y2="489.767" gradientUnits="userSpaceOnUse"><stop stop-color="#FFD89B"/><stop offset=".04" stop-color="#F2CC91"/><stop offset=".222" stop-color="#BD9869"/><stop offset=".4" stop-color="#916D47"/><stop offset=".571" stop-color="#6F4C2D"/><stop offset=".731" stop-color="#56341A"/><stop offset=".879" stop-color="#47260F"/><stop offset="1" stop-color="#42210B"/></linearGradient><linearGradient id="paint5_linear" x1="635.417" y1="1402.54" x2="1376.2" y2="661.749" gradientUnits="userSpaceOnUse"><stop stop-color="#FFD89B"/><stop offset=".04" stop-color="#F2CC91"/><stop offset=".222" stop-color="#BD9869"/><stop offset=".4" stop-color="#916D47"/><stop offset=".571" stop-color="#6F4C2D"/><stop offset=".731" stop-color="#56341A"/><stop offset=".879" stop-color="#47260F"/><stop offset="1" stop-color="#42210B"/></linearGradient><linearGradient id="paint6_linear" x1="506.429" y1="1273.55" x2="1247.21" y2="532.762" gradientUnits="userSpaceOnUse"><stop stop-color="#FFD89B"/><stop offset=".04" stop-color="#F2CC91"/><stop offset=".222" stop-color="#BD9869"/><stop offset=".4" stop-color="#916D47"/><stop offset=".571" stop-color="#6F4C2D"/><stop offset=".731" stop-color="#56341A"/><stop offset=".879" stop-color="#47260F"/><stop offset="1" stop-color="#42210B"/></linearGradient><linearGradient id="paint7_linear" x1="621.085" y1="1388.2" x2="1361.87" y2="647.418" gradientUnits="userSpaceOnUse"><stop stop-color="#FFD89B"/><stop offset=".04" stop-color="#F2CC91"/><stop offset=".222" stop-color="#BD9869"/><stop offset=".4" stop-color="#916D47"/><stop offset=".571" stop-color="#6F4C2D"/><stop offset=".731" stop-color="#56341A"/><stop offset=".879" stop-color="#47260F"/><stop offset="1" stop-color="#42210B"/></linearGradient><linearGradient id="paint8_linear" x1="520.761" y1="1287.88" x2="1261.55" y2="547.094" gradientUnits="userSpaceOnUse"><stop stop-color="#FFD89B"/><stop offset=".04" stop-color="#F2CC91"/><stop offset=".222" stop-color="#BD9869"/><stop offset=".4" stop-color="#916D47"/><stop offset=".571" stop-color="#6F4C2D"/><stop offset=".731" stop-color="#56341A"/><stop offset=".879" stop-color="#47260F"/><stop offset="1" stop-color="#42210B"/></linearGradient><linearGradient id="paint9_linear" x1="592.422" y1="1359.54" x2="1333.21" y2="618.755" gradientUnits="userSpaceOnUse"><stop stop-color="#FFD89B"/><stop offset=".04" stop-color="#F2CC91"/><stop offset=".222" stop-color="#BD9869"/><stop offset=".4" stop-color="#916D47"/><stop offset=".571" stop-color="#6F4C2D"/><stop offset=".731" stop-color="#56341A"/><stop offset=".879" stop-color="#47260F"/><stop offset="1" stop-color="#42210B"/></linearGradient><linearGradient id="paint10_linear" x1="535.094" y1="1302.21" x2="1275.88" y2="561.426" gradientUnits="userSpaceOnUse"><stop stop-color="#FFD89B"/><stop offset=".04" stop-color="#F2CC91"/><stop offset=".222" stop-color="#BD9869"/><stop offset=".4" stop-color="#916D47"/><stop offset=".571" stop-color="#6F4C2D"/><stop offset=".731" stop-color="#56341A"/><stop offset=".879" stop-color="#47260F"/><stop offset="1" stop-color="#42210B"/></linearGradient><linearGradient id="paint11_linear" x1="578.09" y1="1345.21" x2="1318.87" y2="604.422" gradientUnits="userSpaceOnUse"><stop stop-color="#FFD89B"/><stop offset=".04" stop-color="#F2CC91"/><stop offset=".222" stop-color="#BD9869"/><stop offset=".4" stop-color="#916D47"/><stop offset=".571" stop-color="#6F4C2D"/><stop offset=".731" stop-color="#56341A"/><stop offset=".879" stop-color="#47260F"/><stop offset="1" stop-color="#42210B"/></linearGradient><linearGradient id="paint12_linear" x1="492.097" y1="1259.21" x2="1232.88" y2="518.43" gradientUnits="userSpaceOnUse"><stop stop-color="#FFD89B"/><stop offset=".04" stop-color="#F2CC91"/><stop offset=".222" stop-color="#BD9869"/><stop offset=".4" stop-color="#916D47"/><stop offset=".571" stop-color="#6F4C2D"/><stop offset=".731" stop-color="#56341A"/><stop offset=".879" stop-color="#47260F"/><stop offset="1" stop-color="#42210B"/></linearGradient><linearGradient id="paint13_linear" x1="606.754" y1="1373.87" x2="1347.54" y2="633.087" gradientUnits="userSpaceOnUse"><stop stop-color="#FFD89B"/><stop offset=".04" stop-color="#F2CC91"/><stop offset=".222" stop-color="#BD9869"/><stop offset=".4" stop-color="#916D47"/><stop offset=".571" stop-color="#6F4C2D"/><stop offset=".731" stop-color="#56341A"/><stop offset=".879" stop-color="#47260F"/><stop offset="1" stop-color="#42210B"/></linearGradient><linearGradient id="paint14_linear" x1="406.105" y1="1173.22" x2="1146.89" y2="432.438" gradientUnits="userSpaceOnUse"><stop stop-color="#FFD89B"/><stop offset=".04" stop-color="#F2CC91"/><stop offset=".222" stop-color="#BD9869"/><stop offset=".4" stop-color="#916D47"/><stop offset=".571" stop-color="#6F4C2D"/><stop offset=".731" stop-color="#56341A"/><stop offset=".879" stop-color="#47260F"/><stop offset="1" stop-color="#42210B"/></linearGradient><linearGradient id="paint15_linear" x1="391.773" y1="1158.89" x2="1132.55" y2="418.109" gradientUnits="userSpaceOnUse"><stop stop-color="#FFD89B"/><stop offset=".04" stop-color="#F2CC91"/><stop offset=".222" stop-color="#BD9869"/><stop offset=".4" stop-color="#916D47"/><stop offset=".571" stop-color="#6F4C2D"/><stop offset=".731" stop-color="#56341A"/><stop offset=".879" stop-color="#47260F"/><stop offset="1" stop-color="#42210B"/></linearGradient><linearGradient id="paint16_linear" x1="291.449" y1="1058.57" x2="1032.23" y2="317.78" gradientUnits="userSpaceOnUse"><stop stop-color="#FFD89B"/><stop offset=".04" stop-color="#F2CC91"/><stop offset=".222" stop-color="#BD9869"/><stop offset=".4" stop-color="#916D47"/><stop offset=".571" stop-color="#6F4C2D"/><stop offset=".731" stop-color="#56341A"/><stop offset=".879" stop-color="#47260F"/><stop offset="1" stop-color="#42210B"/></linearGradient><linearGradient id="paint17_linear" x1="377.441" y1="1144.56" x2="1118.22" y2="403.775" gradientUnits="userSpaceOnUse"><stop stop-color="#FFD89B"/><stop offset=".04" stop-color="#F2CC91"/><stop offset=".222" stop-color="#BD9869"/><stop offset=".4" stop-color="#916D47"/><stop offset=".571" stop-color="#6F4C2D"/><stop offset=".731" stop-color="#56341A"/><stop offset=".879" stop-color="#47260F"/><stop offset="1" stop-color="#42210B"/></linearGradient><linearGradient id="paint18_linear" x1="305.781" y1="1072.9" x2="1046.56" y2="332.116" gradientUnits="userSpaceOnUse"><stop stop-color="#FFD89B"/><stop offset=".04" stop-color="#F2CC91"/><stop offset=".222" stop-color="#BD9869"/><stop offset=".4" stop-color="#916D47"/><stop offset=".571" stop-color="#6F4C2D"/><stop offset=".731" stop-color="#56341A"/><stop offset=".879" stop-color="#47260F"/><stop offset="1" stop-color="#42210B"/></linearGradient><linearGradient id="paint19_linear" x1="363.108" y1="1130.23" x2="1103.89" y2="389.442" gradientUnits="userSpaceOnUse"><stop stop-color="#FFD89B"/><stop offset=".04" stop-color="#F2CC91"/><stop offset=".222" stop-color="#BD9869"/><stop offset=".4" stop-color="#916D47"/><stop offset=".571" stop-color="#6F4C2D"/><stop offset=".731" stop-color="#56341A"/><stop offset=".879" stop-color="#47260F"/><stop offset="1" stop-color="#42210B"/></linearGradient><linearGradient id="paint20_linear" x1="320.113" y1="1087.23" x2="1060.9" y2="346.446" gradientUnits="userSpaceOnUse"><stop stop-color="#FFD89B"/><stop offset=".04" stop-color="#F2CC91"/><stop offset=".222" stop-color="#BD9869"/><stop offset=".4" stop-color="#916D47"/><stop offset=".571" stop-color="#6F4C2D"/><stop offset=".731" stop-color="#56341A"/><stop offset=".879" stop-color="#47260F"/><stop offset="1" stop-color="#42210B"/></linearGradient><linearGradient id="paint21_linear" x1="348.776" y1="1115.89" x2="1089.56" y2="375.111" gradientUnits="userSpaceOnUse"><stop stop-color="#FFD89B"/><stop offset=".04" stop-color="#F2CC91"/><stop offset=".222" stop-color="#BD9869"/><stop offset=".4" stop-color="#916D47"/><stop offset=".571" stop-color="#6F4C2D"/><stop offset=".731" stop-color="#56341A"/><stop offset=".879" stop-color="#47260F"/><stop offset="1" stop-color="#42210B"/></linearGradient><linearGradient id="paint22_linear" x1="334.445" y1="1101.56" x2="1075.23" y2="360.78" gradientUnits="userSpaceOnUse"><stop stop-color="#FFD89B"/><stop offset=".04" stop-color="#F2CC91"/><stop offset=".222" stop-color="#BD9869"/><stop offset=".4" stop-color="#916D47"/><stop offset=".571" stop-color="#6F4C2D"/><stop offset=".731" stop-color="#56341A"/><stop offset=".879" stop-color="#47260F"/><stop offset="1" stop-color="#42210B"/></linearGradient><linearGradient id="paint23_linear" x1="262.785" y1="1029.9" x2="1003.57" y2="289.117" gradientUnits="userSpaceOnUse"><stop stop-color="#FFD89B"/><stop offset=".04" stop-color="#F2CC91"/><stop offset=".222" stop-color="#BD9869"/><stop offset=".4" stop-color="#916D47"/><stop offset=".571" stop-color="#6F4C2D"/><stop offset=".731" stop-color="#56341A"/><stop offset=".879" stop-color="#47260F"/><stop offset="1" stop-color="#42210B"/></linearGradient><linearGradient id="paint24_linear" x1="277.116" y1="1044.23" x2="1017.9" y2="303.451" gradientUnits="userSpaceOnUse"><stop stop-color="#FFD89B"/><stop offset=".04" stop-color="#F2CC91"/><stop offset=".222" stop-color="#BD9869"/><stop offset=".4" stop-color="#916D47"/><stop offset=".571" stop-color="#6F4C2D"/><stop offset=".731" stop-color="#56341A"/><stop offset=".879" stop-color="#47260F"/><stop offset="1" stop-color="#42210B"/></linearGradient><linearGradient id="paint25_linear" x1="420.437" y1="1187.55" x2="1161.22" y2="446.768" gradientUnits="userSpaceOnUse"><stop stop-color="#FFD89B"/><stop offset=".04" stop-color="#F2CC91"/><stop offset=".222" stop-color="#BD9869"/><stop offset=".4" stop-color="#916D47"/><stop offset=".571" stop-color="#6F4C2D"/><stop offset=".731" stop-color="#56341A"/><stop offset=".879" stop-color="#47260F"/><stop offset="1" stop-color="#42210B"/></linearGradient><linearGradient id="paint26_linear" x1="434.769" y1="1201.89" x2="1175.55" y2="461.104" gradientUnits="userSpaceOnUse"><stop stop-color="#FFD89B"/><stop offset=".04" stop-color="#F2CC91"/><stop offset=".222" stop-color="#BD9869"/><stop offset=".4" stop-color="#916D47"/><stop offset=".571" stop-color="#6F4C2D"/><stop offset=".731" stop-color="#56341A"/><stop offset=".879" stop-color="#47260F"/><stop offset="1" stop-color="#42210B"/></linearGradient><linearGradient id="paint27_linear" x1="419.651" y1="-272.778" x2="1130.45" y2="675.454" gradientUnits="userSpaceOnUse"><stop stop-color="#FFD89B"/><stop offset=".644" stop-color="#754C24"/><stop offset=".839" stop-color="#42210B"/><stop offset="1" stop-color="#D2AA74"/></linearGradient><linearGradient id="paint28_linear" x1="321.924" y1="-199.522" x2="1032.73" y2="748.712" gradientUnits="userSpaceOnUse"><stop stop-color="#FFD89B"/><stop offset=".644" stop-color="#754C24"/><stop offset=".839" stop-color="#42210B"/><stop offset="1" stop-color="#D2AA74"/></linearGradient><linearGradient id="paint29_linear" x1="439.197" y1="-287.429" x2="1150" y2="660.805" gradientUnits="userSpaceOnUse"><stop stop-color="#FFD89B"/><stop offset=".644" stop-color="#754C24"/><stop offset=".839" stop-color="#42210B"/><stop offset="1" stop-color="#D2AA74"/></linearGradient><linearGradient id="paint30_linear" x1="282.833" y1="-170.219" x2="993.638" y2="778.015" gradientUnits="userSpaceOnUse"><stop stop-color="#FFD89B"/><stop offset=".644" stop-color="#754C24"/><stop offset=".839" stop-color="#42210B"/><stop offset="1" stop-color="#D2AA74"/></linearGradient><linearGradient id="paint31_linear" x1="302.379" y1="-184.87" x2="1013.18" y2="763.364" gradientUnits="userSpaceOnUse"><stop stop-color="#FFD89B"/><stop offset=".644" stop-color="#754C24"/><stop offset=".839" stop-color="#42210B"/><stop offset="1" stop-color="#D2AA74"/></linearGradient><linearGradient id="paint32_linear" x1="536.92" y1="-360.687" x2="1247.72" y2="587.551" gradientUnits="userSpaceOnUse"><stop stop-color="#FFD89B"/><stop offset=".644" stop-color="#754C24"/><stop offset=".839" stop-color="#42210B"/><stop offset="1" stop-color="#D2AA74"/></linearGradient><linearGradient id="paint33_linear" x1="361.015" y1="-228.825" x2="1071.82" y2="719.41" gradientUnits="userSpaceOnUse"><stop stop-color="#FFD89B"/><stop offset=".644" stop-color="#754C24"/><stop offset=".839" stop-color="#42210B"/><stop offset="1" stop-color="#D2AA74"/></linearGradient><linearGradient id="paint34_linear" x1="517.377" y1="-346.036" x2="1228.18" y2="602.197" gradientUnits="userSpaceOnUse"><stop stop-color="#FFD89B"/><stop offset=".644" stop-color="#754C24"/><stop offset=".839" stop-color="#42210B"/><stop offset="1" stop-color="#D2AA74"/></linearGradient><linearGradient id="paint35_linear" x1="380.56" y1="-243.476" x2="1091.37" y2="704.758" gradientUnits="userSpaceOnUse"><stop stop-color="#FFD89B"/><stop offset=".644" stop-color="#754C24"/><stop offset=".839" stop-color="#42210B"/><stop offset="1" stop-color="#D2AA74"/></linearGradient><linearGradient id="paint36_linear" x1="478.286" y1="-316.733" x2="1189.09" y2="631.5" gradientUnits="userSpaceOnUse"><stop stop-color="#FFD89B"/><stop offset=".644" stop-color="#754C24"/><stop offset=".839" stop-color="#42210B"/><stop offset="1" stop-color="#D2AA74"/></linearGradient><linearGradient id="paint37_linear" x1="400.106" y1="-258.127" x2="1110.91" y2="690.106" gradientUnits="userSpaceOnUse"><stop stop-color="#FFD89B"/><stop offset=".644" stop-color="#754C24"/><stop offset=".839" stop-color="#42210B"/><stop offset="1" stop-color="#D2AA74"/></linearGradient><linearGradient id="paint38_linear" x1="458.742" y1="-302.081" x2="1169.55" y2="646.151" gradientUnits="userSpaceOnUse"><stop stop-color="#FFD89B"/><stop offset=".644" stop-color="#754C24"/><stop offset=".839" stop-color="#42210B"/><stop offset="1" stop-color="#D2AA74"/></linearGradient><linearGradient id="paint39_linear" x1="341.47" y1="-214.173" x2="1052.28" y2="734.062" gradientUnits="userSpaceOnUse"><stop stop-color="#FFD89B"/><stop offset=".644" stop-color="#754C24"/><stop offset=".839" stop-color="#42210B"/><stop offset="1" stop-color="#D2AA74"/></linearGradient><linearGradient id="paint40_linear" x1="497.832" y1="-331.384" x2="1208.64" y2="616.849" gradientUnits="userSpaceOnUse"><stop stop-color="#FFD89B"/><stop offset=".644" stop-color="#754C24"/><stop offset=".839" stop-color="#42210B"/><stop offset="1" stop-color="#D2AA74"/></linearGradient><linearGradient id="paint41_linear" x1="224.197" y1="-126.265" x2="935" y2="821.966" gradientUnits="userSpaceOnUse"><stop stop-color="#FFD89B"/><stop offset=".644" stop-color="#754C24"/><stop offset=".839" stop-color="#42210B"/><stop offset="1" stop-color="#D2AA74"/></linearGradient><linearGradient id="paint42_linear" x1="204.652" y1="-111.614" x2="915.455" y2="836.618" gradientUnits="userSpaceOnUse"><stop stop-color="#FFD89B"/><stop offset=".644" stop-color="#754C24"/><stop offset=".839" stop-color="#42210B"/><stop offset="1" stop-color="#D2AA74"/></linearGradient><linearGradient id="paint43_linear" x1="67.835" y1="-9.054" x2="778.642" y2="939.183" gradientUnits="userSpaceOnUse"><stop stop-color="#FFD89B"/><stop offset=".644" stop-color="#754C24"/><stop offset=".839" stop-color="#42210B"/><stop offset="1" stop-color="#D2AA74"/></linearGradient><linearGradient id="paint44_linear" x1="185.106" y1="-96.963" x2="895.91" y2="851.269" gradientUnits="userSpaceOnUse"><stop stop-color="#FFD89B"/><stop offset=".644" stop-color="#754C24"/><stop offset=".839" stop-color="#42210B"/><stop offset="1" stop-color="#D2AA74"/></linearGradient><linearGradient id="paint45_linear" x1="87.38" y1="-23.705" x2="798.186" y2="924.529" gradientUnits="userSpaceOnUse"><stop stop-color="#FFD89B"/><stop offset=".644" stop-color="#754C24"/><stop offset=".839" stop-color="#42210B"/><stop offset="1" stop-color="#D2AA74"/></linearGradient><linearGradient id="paint46_linear" x1="165.562" y1="-82.311" x2="876.368" y2="865.925" gradientUnits="userSpaceOnUse"><stop stop-color="#FFD89B"/><stop offset=".644" stop-color="#754C24"/><stop offset=".839" stop-color="#42210B"/><stop offset="1" stop-color="#D2AA74"/></linearGradient><linearGradient id="paint47_linear" x1="106.925" y1="-38.357" x2="817.727" y2="909.873" gradientUnits="userSpaceOnUse"><stop stop-color="#FFD89B"/><stop offset=".644" stop-color="#754C24"/><stop offset=".839" stop-color="#42210B"/><stop offset="1" stop-color="#D2AA74"/></linearGradient><linearGradient id="paint48_linear" x1="146.016" y1="-67.659" x2="856.82" y2="880.572" gradientUnits="userSpaceOnUse"><stop stop-color="#FFD89B"/><stop offset=".644" stop-color="#754C24"/><stop offset=".839" stop-color="#42210B"/><stop offset="1" stop-color="#D2AA74"/></linearGradient><linearGradient id="paint49_linear" x1="126.47" y1="-53.008" x2="837.277" y2="895.228" gradientUnits="userSpaceOnUse"><stop stop-color="#FFD89B"/><stop offset=".644" stop-color="#754C24"/><stop offset=".839" stop-color="#42210B"/><stop offset="1" stop-color="#D2AA74"/></linearGradient><linearGradient id="paint50_linear" x1="28.744" y1="20.249" x2="739.548" y2="968.482" gradientUnits="userSpaceOnUse"><stop stop-color="#FFD89B"/><stop offset=".644" stop-color="#754C24"/><stop offset=".839" stop-color="#42210B"/><stop offset="1" stop-color="#D2AA74"/></linearGradient><linearGradient id="paint51_linear" x1="48.289" y1="5.597" x2="759.094" y2="953.831" gradientUnits="userSpaceOnUse"><stop stop-color="#FFD89B"/><stop offset=".644" stop-color="#754C24"/><stop offset=".839" stop-color="#42210B"/><stop offset="1" stop-color="#D2AA74"/></linearGradient><linearGradient id="paint52_linear" x1="243.743" y1="-140.916" x2="954.549" y2="807.319" gradientUnits="userSpaceOnUse"><stop stop-color="#FFD89B"/><stop offset=".644" stop-color="#754C24"/><stop offset=".839" stop-color="#42210B"/><stop offset="1" stop-color="#D2AA74"/></linearGradient><linearGradient id="paint53_linear" x1="263.288" y1="-155.568" x2="974.092" y2="792.665" gradientUnits="userSpaceOnUse"><stop stop-color="#FFD89B"/><stop offset=".644" stop-color="#754C24"/><stop offset=".839" stop-color="#42210B"/><stop offset="1" stop-color="#D2AA74"/></linearGradient></defs></svg>