<svg width="1427" height="1024" viewBox="0 0 1427 1024" fill="none" xmlns="http://www.w3.org/2000/svg"><path d="M1893.1 647.318l156.98-156.986-223.36-223.333 317.76-317.713h-10.11l-312.75 312.632-23.15-23.152 289.47-289.48h-10.11L1793.36 233.66l-24.11-24.112 260.33-260.337h-10.11l-206.22 206.222-105.47-105.247-5.05 5.055 105.29 105.323-20.22 20.22-105.27-105.348-5.05 5.055 105.32 105.323-18.61 18.577-105.54-105.55 149.67-149.555h-10.11l-144.67 144.5-144.55-144.5h-10.11l149.56 149.555-270.24 270.447-222.42-222.424-43.3 43.272v10.11l43.27-43.271 217.36 217.368-99.43 99.333-.25-.228-150.06 167.425v10.894l138.48-156.531 22.55 22.545-171.87 171.873v10.111l177.05-176.928 22.57 22.545-199.67 199.676v10.11l204.73-204.731 22.57 22.546L1112.5 800.26v10.11l63.19-63.189 283.84 284.319h10.11l-40.21-40.208 164.06-164.038-5.06-5.055-163.98 163.987-22.55-22.571 163.99-163.962-5.06-5.055-163.98 163.987-22.55-22.571 163.99-163.987-5.06-5.055-163.98 163.962-22.55-22.546 164.14-164.139 137.67 137.676-149.73 149.575h10.11l144.55-144.545 144.77 144.545h10.11l-100.08-100.086 52.31-52.32 43.6 43.726-.45.455 5.05 5.055.46-.455 18.96 18.932-.46.455 5.06 5.055.45-.455 79.62 79.618h10.11l-84.55-84.749 53.56-53.559 138.3 138.328h10.11l-71.25-71.247 113.36-113.259 112.15 112.147v-10.11l-193.61-193.61 256.97-265.139h-7.76l-254.31 259.882-102.82-102.846zm-69.99 166.818l52.88-52.851v105.727l-52.88-52.876zm169.49-54.342v109.417h-109.41V759.768l109.41.026zm.91 116.621l-54.06 53.988-54.04-54.014 108.1.026zm-108.83-123.85l51.71-51.713 51.72 51.713h-103.43zm-66.65 56.516l-19.56-19.538 113.28-113.284 19.54 19.563-113.26 113.259zm88.61-138.004l-113.28 113.285-18.63-18.654 113.26-113.335 18.65 18.704zm-118.36-432.21l-.23.202 5.06 5.055.2-.202 23.15 23.152-.2.203 5.06 5.055.2-.202 218.25 218.228-151.78 151.905-275.7-275.755 151.85-151.855 24.14 24.214zm-134.74-134.844l105.52 105.525-156.98 156.96 280.83 280.81-113.28 113.285-386.35-386.26 270.26-270.32zm-312.02 799.133l-160.85-160.828 164.16-164.138 160.83 160.827-164.14 164.139zm-74.33-412.798l111.01-110.96 386.32 386.31-110.98 111.01-386.35-386.36zm443.75 339.145l20.47 20.448-52.32 52.32-20.44-20.473 52.29-52.295zm-7.81 96.805l-18.93-18.956 52.29-52.295 18.96 18.931-52.32 52.32zm12.92-101.91l53.58-53.584 93.19 93.216-53.59 53.558-93.18-93.19zm117.25 117.253l-18.96-18.957 53.58-53.584 18.93 18.957-53.55 53.584zm130.82 13.471l-19.56-19.664 113.28-113.284 19.56 19.563-113.28 113.385zm88.61-137.953l-52.9 52.927V764.268l52.9 52.901z" fill="url(#paint0_linear)"/><path d="M1377.59 267.656l171.64-171.62-146.77-146.75h-10.19l146.75 146.75-161.43 161.434-161.43-161.434 146.74-146.75h-10.21l-146.74 146.75 171.64 171.62z" fill="url(#paint1_linear)"/><path d="M308.559 695.544L109.317 496.297l199.242 199.247z" fill="url(#paint2_linear)"/><path d="M346.32 247.638L141.264 452.697 346.32 247.638z" fill="url(#paint3_linear)"/><path d="M152.157 452.697l199.622-199.625-199.622 199.625z" fill="url(#paint4_linear)"/><path d="M109.317 485.429l204.676 204.68-204.676-204.68z" fill="url(#paint5_linear)"/><path d="M346.339 657.771l-32.331 32.332 2.716 2.716 32.331-32.331-2.716-2.717z" fill="url(#paint6_linear)"/><path d="M109.317 496.297l-44.054 44.056 44.054-44.056z" fill="url(#paint7_linear)"/><path d="M351.779 663.216l-2.729-2.729-32.327 32.327 2.704 2.73 32.352-32.328z" fill="url(#paint8_linear)"/><path d="M351.779 242.178L-6.417-116h-5.435L349.05 244.908l2.729-2.73z" fill="url(#paint9_linear)"/><path d="M870.371 974.837l33.944 33.943-33.944-33.943z" fill="url(#paint10_linear)"/><path d="M449.821 565.148l-95.337 95.339 360.901 360.903h5.459L357.213 657.757l92.608-92.609z" fill="url(#paint11_linear)"/><path d="M351.779 652.323l46.304-46.305-46.304 46.305z" fill="url(#paint12_linear)"/><path d="M904.315 1019.65L449.821 565.148l454.494 454.502z" fill="url(#paint13_linear)"/><path d="M1123.37 800.614L904.315 1019.65l219.055-219.036z" fill="url(#paint14_linear)"/><path d="M352.436 662.534l-.657.682L709.95 1021.39h5.435L354.483 660.487l-2.047 2.047z" fill="url(#paint15_linear)"/><path d="M351.779 663.217l.657-.683-.657.683z" fill="url(#paint16_linear)"/><path d="M351.779 253.072l92.608 92.609-92.608-92.609z" fill="url(#paint17_linear)"/><path d="M904.315-103.388l-285.86 285.866 285.86-285.866z" fill="url(#paint18_linear)"/><path d="M1123.37 115.675L904.315-103.388l219.055 219.063z" fill="url(#paint19_linear)"/><path d="M354.484 244.908l2.729 2.73 92.608 92.609-92.608-92.609 51.991-51.992-2.704-2.73-52.016 51.992z" fill="url(#paint20_linear)"/><path d="M403.773 190.206l-51.99 51.991 2.716 2.717 51.99-51.991-2.716-2.717z" fill="url(#paint21_linear)"/><path d="M354.484 244.908l2.729 2.73-2.729-2.73z" fill="url(#paint22_linear)"/><path d="M351.779 242.204l2.704 2.704-2.704-2.73-2.73 2.73 2.73-2.704z" fill="url(#paint23_linear)"/><path d="M398.083 606.018l46.304-46.304-46.304 46.304z" fill="url(#paint24_linear)"/><path d="M141.264 452.697l205.056 205.06-205.056-205.06z" fill="url(#paint25_linear)"/><path d="M351.779 652.323L152.157 452.697l199.622 199.626z" fill="url(#paint26_linear)"/><path d="M444.387 345.681L337.373 452.697l107.014-107.016z" fill="url(#paint27_linear)"/><path d="M351.779 253.072l-5.459-5.434-205.056 205.059 205.056 205.06 5.459-5.434-199.622-199.626 199.622-199.625z" fill="url(#paint28_linear)"/><path d="M398.083 606.018l-46.304 46.305 5.434 5.434-2.73 2.73 95.338-95.339-5.434-5.434-46.304 46.304z" fill="url(#paint29_linear)"/><path d="M352.436 662.534l2.048-2.047-2.048 2.047z" fill="url(#paint30_linear)"/><path d="M349.05 660.487l2.729-2.73 2.705 2.73 2.729-2.73-5.434-5.434-5.459 5.434 2.73 2.73z" fill="url(#paint31_linear)"/><path d="M351.779 657.757l-2.73 2.73 2.73 2.73.657-.683 2.047-2.047-2.704-2.73z" fill="url(#paint32_linear)"/><path d="M357.204 247.638l-5.433 5.433 92.613 92.615 5.433-5.433-92.613-92.615z" fill="url(#paint33_linear)"/><path d="M351.779 253.072l5.434-5.434-2.729-2.73-2.705 2.73-2.729-2.73-2.73 2.73 5.459 5.434z" fill="url(#paint34_linear)"/><path d="M351.78 242.179l-2.717 2.717 2.717 2.717 2.716-2.717-2.716-2.717z" fill="url(#paint35_linear)"/><path d="M904.315-114.256L449.821 340.247l454.494-454.503z" fill="url(#paint36_linear)"/><path d="M455.255 345.681l107.014 107.016-107.014-107.016z" fill="url(#paint37_linear)"/><path d="M449.821 554.279l101.58-101.582-101.58 101.582z" fill="url(#paint38_linear)"/><path d="M551.401 452.697l-101.58-101.582 101.58 101.582z" fill="url(#paint39_linear)"/><path d="M904.315 1008.78l-33.944-33.943-3.185 3.21-5.459-5.459 3.21-3.185-12.082-12.082-3.21 3.21-5.434-5.459 3.21-3.21-12.081-12.082-3.21 3.21-5.434-5.434 3.21-3.21-224.518-224.522-1.896 1.896-5.434-5.434 1.896-1.896-144.699-144.676-5.434 5.434 454.494 454.502 219.055-219.036V789.72l-219.055 219.06z" fill="url(#paint40_linear)"/><path d="M449.821 340.247l5.434 5.434L561.764 239.17l-1.82-1.819 5.434-5.435 1.845 1.82 45.798-45.799-1.82-1.845 5.434-5.434 1.82 1.82 285.86-285.866 246.325 255.207 5.11-5.081-251.435-260.994-454.494 454.503z" fill="url(#paint41_linear)"/><path d="M455.255 345.681l-5.434-5.434 5.434 5.434z" fill="url(#paint42_linear)"/><path d="M449.821 351.115l-101.58 101.582 101.58-101.582z" fill="url(#paint43_linear)"/><path d="M444.387 559.714L337.373 452.697l107.014 107.017z" fill="url(#paint44_linear)"/><path d="M455.255 559.714l107.014-107.017-107.014 107.017z" fill="url(#paint45_linear)"/><path d="M348.241 452.697l101.58 101.582-101.58-101.582z" fill="url(#paint46_linear)"/><path d="M449.821 351.115l-5.434-5.434-107.014 107.016 107.014 107.017 5.434-5.435-101.58-101.582 101.58-101.582z" fill="url(#paint47_linear)"/><path d="M455.255 345.681l-5.434 5.434 101.58 101.582-101.58 101.582 5.434 5.435 107.014-107.017-107.014-107.016z" fill="url(#paint48_linear)"/><path d="M449.818 554.298l-5.433 5.433 5.433 5.433 5.434-5.433-5.434-5.433z" fill="url(#paint49_linear)"/><path d="M449.824 340.271l-5.433 5.433 5.433 5.433 5.433-5.433-5.433-5.433z" fill="url(#paint50_linear)"/><path d="M709.951-116L574.906 19.072 709.951-116z" fill="url(#paint51_linear)"/><path d="M414.638 190.187L698.906-94.061 414.638 190.187z" fill="url(#paint52_linear)"/><path d="M409.204 184.752L108.457-116h-5.434L406.5 187.482l2.704-2.73z" fill="url(#paint53_linear)"/><path d="M406.499 187.482L103.023-116h-5.434L403.77 190.187l2.729-2.705z" fill="url(#paint54_linear)"/><path d="M468.297 254.74l-59.093-59.094 59.093 59.094z" fill="url(#paint55_linear)"/><path d="M414.638 190.187l53.659 53.659-53.659-53.659z" fill="url(#paint56_linear)"/><path d="M574.906 19.072l-165.702 165.68 165.702-165.68z" fill="url(#paint57_linear)"/><path d="M414.638 190.187l-5.434 5.459 59.093 59.094L839.004-116h-10.868L468.297 243.846l-53.659-53.659z" fill="url(#paint58_linear)"/><path d="M409.204 184.752l5.434 5.435L698.905-94.061 720.844-116H709.95L574.906 19.072l-165.702 165.68z" fill="url(#paint59_linear)"/><path d="M409.204 190.187l-2.704 2.729 2.704 2.73 5.434-5.459-5.434-5.435-2.704 2.73 2.704 2.705z" fill="url(#paint60_linear)"/><path d="M406.457 187.456l-2.717 2.717 2.717 2.717 2.717-2.717-2.717-2.717z" fill="url(#paint61_linear)"/><path d="M316.723 698.274l-2.73 2.704 157.817 157.82L355.04 975.57l.531.531-5.435 5.434-.53-.531-15.595 15.595.556.531-5.459 5.43-.531-.53-15.569 15.6.53.53-3.26 3.23h4.398l162.568-162.592-160.521-160.524z" fill="url(#paint62_linear)"/><path d="M319.427 695.544l-.632.657-2.072 2.072 160.521 160.525-162.568 162.592h5.434l162.593-162.592-163.276-163.254z" fill="url(#paint63_linear)"/><path d="M316.723 698.274l2.072-2.073-2.072 2.073z" fill="url(#paint64_linear)"/><path d="M-12.964 1017.07l272.009-272.037-272.009 272.037z" fill="url(#paint65_linear)"/><path d="M-12.964 607.737l122.28-122.308-122.28 122.308z" fill="url(#paint66_linear)"/><path d="M-12.964 618.605l72.792-72.793-4.044-4.044 5.46-5.434 4.018 4.019 44.055-44.056 199.242 199.247 5.434-5.435-204.676-204.68-122.28 122.308-1.037 1.011v10.894l1.036-1.037z" fill="url(#paint67_linear)"/><path d="M145.156 860.643l5.435-5.434 4.6 4.6 15.569-15.595-4.6-4.6 5.459-5.435 4.575 4.601 15.595-15.595-4.6-4.575 5.459-5.46 4.575 4.6 116.77-116.772-5.434-5.434-44.054 44.055 4.347 4.347-5.434 5.434-4.373-4.347-272.009 272.037-1.036 1.04v3.28h7.582l156.149-156.147-4.575-4.6z" fill="url(#paint68_linear)"/><path d="M318.795 696.201l.632-.657-.632.657z" fill="url(#paint69_linear)"/><path d="M313.993 695.544l2.73-2.73-2.73-2.705-5.434 5.435 5.434 5.434 2.73-2.704-2.73-2.73z" fill="url(#paint70_linear)"/><path d="M316.723 692.814l-2.73 2.73 2.73 2.73 2.072-2.073.632-.657-2.704-2.73z" fill="url(#paint71_linear)"/><path d="M821.009 493.846v.378l.353-.378h-.353z" fill="url(#paint72_linear)"/><path d="M870.245 434.272l-5.434 5.434-.102-.076-45.798 45.799.076.101-.607.607h10.692l102.844-102.846-.102-.076 5.434-5.459.102.101 40.541-40.542-.076-.101 5.434-5.434.101.075 140.02-140.025v-10.894L870.144 434.17l.101.102z" fill="url(#paint73_linear)"/><path d="M655.862 659.172l5.46-5.459.076.101 40.566-40.542-.101-.101 5.434-5.434.101.076L813.3 501.909v-10.894L599.954 704.39l5.434 5.434 50.575-50.576-.101-.076z" fill="url(#paint74_linear)"/><path d="M599.945 704.365l-1.895 1.895 5.433 5.433 1.895-1.895-5.433-5.433z" fill="url(#paint75_linear)"/><path d="M1045.63 486.137l-108.281-108.28-5.434 5.434 102.845 102.846h10.87z" fill="url(#paint76_linear)"/><path d="M1047.02 498.395l105.75 109.67 6.11-5.055-111.86-115.483v10.868z" fill="url(#paint77_linear)"/><path d="M937.253 377.826l-5.433 5.434.089.089 5.434-5.433-.09-.09z" fill="url(#paint78_linear)"/><path d="M977.89 337.315l145.48 145.46v-10.868L983.35 331.855l-5.46 5.46z" fill="url(#paint79_linear)"/><path d="M983.246 331.796l-5.433 5.433.089.089 5.433-5.433-.089-.089z" fill="url(#paint80_linear)"/><path d="M661.398 653.82l-5.433 5.434 224.51 224.513 5.433-5.433-224.51-224.514z" fill="url(#paint81_linear)"/><path d="M661.306 653.647l-5.432 5.434.089.09 5.432-5.434-.089-.09z" fill="url(#paint82_linear)"/><path d="M813.3 719.859v-6.142L707.398 607.813l-5.434 5.459 224.517 224.522 5.435-5.46-112.474-112.475H813.3z" fill="url(#paint83_linear)"/><path d="M707.294 607.702l-5.451 5.451.089.089 5.451-5.451-.089-.089z" fill="url(#paint84_linear)"/><path d="M618.437 182.473l-5.433 5.433 251.692 251.697 5.433-5.433-251.692-251.697z" fill="url(#paint85_linear)"/><path d="M616.627 180.67l-5.433 5.433 1.823 1.823 5.433-5.433-1.823-1.823z" fill="url(#paint86_linear)"/><path d="M870.145 434.206l-5.433 5.434.089.089 5.434-5.433-.09-.09z" fill="url(#paint87_linear)"/><path d="M561.764 239.171L813.3 490.712v-4.575h4.878l.733-.708-251.688-251.693-5.459 5.435z" fill="url(#paint88_linear)"/><path d="M565.37 231.894l-5.433 5.433 1.822 1.823 5.433-5.433-1.822-1.823z" fill="url(#paint89_linear)"/><path d="M818.38 486.137l.607-.607-.076-.101-.733.708h.202z" fill="url(#paint90_linear)"/><path d="M290.209 191.526L-12.964 494.73v10.869L295.67 196.96l-5.46-5.434z" fill="url(#paint91_linear)"/><path d="M291.882 189.864l-1.662 1.662 5.433 5.434 1.662-1.662-5.433-5.434z" fill="url(#paint92_linear)"/><path d="M246.863 148.154L-12.964 407.985v10.894l265.261-265.291-5.434-5.434z" fill="url(#paint93_linear)"/><path d="M248.526 146.492l-1.662 1.662 5.433 5.433 1.662-1.662-5.433-5.433z" fill="url(#paint94_linear)"/><path d="M59.828 545.812l154.43 154.433.961-.961 5.459 5.435-.986.96 39.353 39.354 5.46-5.434L65.262 540.353l-5.434 5.459z" fill="url(#paint95_linear)"/><path d="M61.213 536.342l-5.434 5.433 4.04 4.039 5.433-5.433-4.04-4.039z" fill="url(#paint96_linear)"/><path d="M264.472 739.615l-5.433 5.434 4.361 4.36 5.433-5.433-4.361-4.361z" fill="url(#paint97_linear)"/><path d="M197.216 817.769l-5.434 5.433 157.811 157.814 5.433-5.433-157.81-157.814z" fill="url(#paint98_linear)"/><path d="M355.04 975.552l-5.433 5.434.536.536 5.433-5.433-.536-.537z" fill="url(#paint99_linear)"/><path d="M192.603 813.193l-5.433 5.433 4.593 4.593 5.433-5.433-4.593-4.593z" fill="url(#paint100_linear)"/><path d="M176.205 838.76l-5.451 5.451 157.811 157.819 5.451-5.456L176.205 838.76z" fill="url(#paint101_linear)"/><path d="M334.029 996.554l-5.451 5.456.536.53 5.451-5.449-.536-.537z" fill="url(#paint102_linear)"/><path d="M171.599 834.187l-5.433 5.434 4.593 4.593 5.434-5.433-4.594-4.594z" fill="url(#paint103_linear)"/><path d="M155.191 859.809l-5.232 5.207-.228.227L305.88 1021.39h3.336l3.791-3.76-157.816-157.821z" fill="url(#paint104_linear)"/><path d="M149.959 865.016l5.232-5.207-5.232 5.207z" fill="url(#paint105_linear)"/><path d="M313.007 1017.63l-3.791 3.76h1.062l3.26-3.23-.531-.53z" fill="url(#paint106_linear)"/><path d="M149.731 865.242l.227-.226-.227.226z" fill="url(#paint107_linear)"/><path d="M150.59 855.209l-5.434 5.434 4.575 4.6.228-.227 5.231-5.207-4.6-4.6z" fill="url(#paint108_linear)"/><path d="M214.258 700.245L-12.964 927.471v10.894l232.656-232.686-5.434-5.434z" fill="url(#paint109_linear)"/><path d="M215.24 699.266l-.966.965 5.434 5.434.965-.966-5.433-5.433z" fill="url(#paint110_linear)"/><path d="M881.719 986.262L1134.72 733.28v-10.894L876.285 980.828l5.434 5.434z" fill="url(#paint111_linear)"/><path d="M864.922 969.394l-3.199 3.199 5.433 5.433 3.199-3.199-5.433-5.433z" fill="url(#paint112_linear)"/><path d="M852.855 959.849l270.515-270.523v-10.894L847.421 954.389l5.434 5.46z" fill="url(#paint113_linear)"/><path d="M847.405 951.928l-3.199 3.199 5.433 5.434 3.199-3.199-5.433-5.434z" fill="url(#paint114_linear)"/><path d="M1047.02 719.859h-2.63L931.915 832.334l4.019 4.044-5.434 5.435-4.019-4.019-40.566 40.542 2.73 2.704-5.434 5.46-2.73-2.73-50.575 50.576 5.434 5.434 288.03-288.013v-10.894l-76.35 76.357v2.629z" fill="url(#paint115_linear)"/><path d="M829.895 934.354l-3.199 3.2 5.433 5.433 3.199-3.199-5.433-5.434z" fill="url(#paint116_linear)"/><path d="M885.903 878.307l-5.434 5.433 2.717 2.717 5.433-5.434-2.716-2.716z" fill="url(#paint117_linear)"/><path d="M931.911 832.348l-5.433 5.433 4.039 4.039 5.433-5.433-4.039-4.039z" fill="url(#paint118_linear)"/><path d="M813.451 490.863l-.151-.151v.302l.151-.151z" fill="url(#paint119_linear)"/><path d="M1039.31 493.846V712.15H821.009V494.225l-7.709 7.684v211.808l6.142 6.142h224.948l2.63-2.629V498.395l-12.26-12.258H829.072l-7.709 7.709h217.947z" fill="url(#paint120_linear)"/><path d="M1047.02 486.137h-1.39l1.39 1.39v-1.39z" fill="url(#paint121_linear)"/><path d="M813.452 490.863l-.152.152v10.894l7.709-7.684v-.379h.354l7.708-7.709H818.38l-4.827 4.827-.101-.101z" fill="url(#paint122_linear)"/><path d="M1047.02 498.395v-10.868l-1.39-1.39h-10.87l12.26 12.258z" fill="url(#paint123_linear)"/><path d="M819.442 719.859l-6.142-6.142v6.142h6.142z" fill="url(#paint124_linear)"/><path d="M818.178 486.137H813.3v4.575l.152.151 4.726-4.726z" fill="url(#paint125_linear)"/><path d="M813.451 490.863l.102.101 4.827-4.827h-.202l-4.727 4.726z" fill="url(#paint126_linear)"/><path d="M1047.02 719.859v-2.629l-2.63 2.629h2.63z" fill="url(#paint127_linear)"/><defs><linearGradient id="paint0_linear" x1="978234" y1="437456" x2="550101" y2="-26558.7" gradientUnits="userSpaceOnUse"><stop offset=".01" stop-color="#774F2A"/><stop offset=".49" stop-color="#A67F50"/><stop offset="1" stop-color="#C0966B"/></linearGradient><linearGradient id="paint1_linear" x1="295861" y1="126988" x2="170130" y2="-11835.5" gradientUnits="userSpaceOnUse"><stop offset=".01" stop-color="#774F2A"/><stop offset=".49" stop-color="#A67F50"/><stop offset="1" stop-color="#C0966B"/></linearGradient><linearGradient id="paint2_linear" x1="59816.3" y1="96666.5" x2="-16694.2" y2="23943" gradientUnits="userSpaceOnUse"><stop offset=".01" stop-color="#774F2A"/><stop offset=".49" stop-color="#A67F50"/><stop offset="1" stop-color="#C0966B"/></linearGradient><linearGradient id="paint3_linear" x1="72886.8" y1="87334.4" x2="-5853.94" y2="12491.2" gradientUnits="userSpaceOnUse"><stop offset=".01" stop-color="#774F2A"/><stop offset=".49" stop-color="#A67F50"/><stop offset="1" stop-color="#C0966B"/></linearGradient><linearGradient id="paint4_linear" x1="71169.5" y1="84824.4" x2="-5486.53" y2="11962.5" gradientUnits="userSpaceOnUse"><stop offset=".01" stop-color="#774F2A"/><stop offset=".49" stop-color="#A67F50"/><stop offset="1" stop-color="#C0966B"/></linearGradient><linearGradient id="paint5_linear" x1="61878.7" y1="98820.1" x2="-16718.6" y2="24113.2" gradientUnits="userSpaceOnUse"><stop offset=".01" stop-color="#774F2A"/><stop offset=".49" stop-color="#A67F50"/><stop offset="1" stop-color="#C0966B"/></linearGradient><linearGradient id="paint6_linear" x1="14345.9" y1="2497.98" x2="14086.7" y2="-433.533" gradientUnits="userSpaceOnUse"><stop offset=".01" stop-color="#774F2A"/><stop offset=".49" stop-color="#A67F50"/><stop offset="1" stop-color="#C0966B"/></linearGradient><linearGradient id="paint7_linear" x1="12935.7" y1="22108.4" x2="-3981.41" y2="6028.59" gradientUnits="userSpaceOnUse"><stop offset=".01" stop-color="#774F2A"/><stop offset=".49" stop-color="#A67F50"/><stop offset="1" stop-color="#C0966B"/></linearGradient><linearGradient id="paint8_linear" x1="11078.3" y1="17311.5" x2="-2383.55" y2="4515.95" gradientUnits="userSpaceOnUse"><stop offset=".01" stop-color="#774F2A"/><stop offset=".49" stop-color="#A67F50"/><stop offset="1" stop-color="#C0966B"/></linearGradient><linearGradient id="paint9_linear" x1="144568" y1="136895" x2="5930.22" y2="4123.37" gradientUnits="userSpaceOnUse"><stop offset=".01" stop-color="#774F2A"/><stop offset=".49" stop-color="#A67F50"/><stop offset="1" stop-color="#C0966B"/></linearGradient><linearGradient id="paint10_linear" x1="12712.2" y1="15602.1" x2="-322.676" y2="3212.41" gradientUnits="userSpaceOnUse"><stop offset=".01" stop-color="#774F2A"/><stop offset=".49" stop-color="#A67F50"/><stop offset="1" stop-color="#C0966B"/></linearGradient><linearGradient id="paint11_linear" x1="121565" y1="205812" x2="-47646.8" y2="76660.5" gradientUnits="userSpaceOnUse"><stop offset=".01" stop-color="#774F2A"/><stop offset=".49" stop-color="#A67F50"/><stop offset="1" stop-color="#C0966B"/></linearGradient><linearGradient id="paint12_linear" x1="15367.2" y1="21757.5" x2="-2414.71" y2="4855.7" gradientUnits="userSpaceOnUse"><stop offset=".01" stop-color="#774F2A"/><stop offset=".49" stop-color="#A67F50"/><stop offset="1" stop-color="#C0966B"/></linearGradient><linearGradient id="paint13_linear" x1="158959" y1="196460" x2="-15569.7" y2="30570.1" gradientUnits="userSpaceOnUse"><stop offset=".01" stop-color="#774F2A"/><stop offset=".49" stop-color="#A67F50"/><stop offset="1" stop-color="#C0966B"/></linearGradient><linearGradient id="paint14_linear" x1="86063.2" y1="85995" x2="1950.41" y2="6036.18" gradientUnits="userSpaceOnUse"><stop offset=".01" stop-color="#774F2A"/><stop offset=".49" stop-color="#A67F50"/><stop offset="1" stop-color="#C0966B"/></linearGradient><linearGradient id="paint15_linear" x1="113786" y1="170186" x2="-24851.4" y2="37423.7" gradientUnits="userSpaceOnUse"><stop offset=".01" stop-color="#774F2A"/><stop offset=".49" stop-color="#A67F50"/><stop offset="1" stop-color="#C0966B"/></linearGradient><linearGradient id="paint16_linear" x1="464.964" y1="890.637" x2="427.679" y2="856.517" gradientUnits="userSpaceOnUse"><stop offset=".01" stop-color="#774F2A"/><stop offset=".49" stop-color="#A67F50"/><stop offset="1" stop-color="#C0966B"/></linearGradient><linearGradient id="paint17_linear" x1="36817.8" y1="35783.5" x2="1255.92" y2="1981.83" gradientUnits="userSpaceOnUse"><stop offset=".01" stop-color="#774F2A"/><stop offset=".49" stop-color="#A67F50"/><stop offset="1" stop-color="#C0966B"/></linearGradient><linearGradient id="paint18_linear" x1="147359" y1="73612.7" x2="37589.6" y2="-30723.2" gradientUnits="userSpaceOnUse"><stop offset=".01" stop-color="#774F2A"/><stop offset=".49" stop-color="#A67F50"/><stop offset="1" stop-color="#C0966B"/></linearGradient><linearGradient id="paint19_linear" x1="125187" y1="43939.1" x2="41067.2" y2="-36017.1" gradientUnits="userSpaceOnUse"><stop offset=".01" stop-color="#774F2A"/><stop offset=".49" stop-color="#A67F50"/><stop offset="1" stop-color="#C0966B"/></linearGradient><linearGradient id="paint20_linear" x1="39051.8" y1="54837.8" x2="-11506.5" y2="23740.4" gradientUnits="userSpaceOnUse"><stop offset=".01" stop-color="#774F2A"/><stop offset=".49" stop-color="#A67F50"/><stop offset="1" stop-color="#C0966B"/></linearGradient><linearGradient id="paint21_linear" x1="30220.5" y1="1638.53" x2="30058.6" y2="-1306.83" gradientUnits="userSpaceOnUse"><stop offset=".01" stop-color="#774F2A"/><stop offset=".49" stop-color="#A67F50"/><stop offset="1" stop-color="#C0966B"/></linearGradient><linearGradient id="paint22_linear" x1="1436.37" y1="1284.84" x2="388.169" y2="288.475" gradientUnits="userSpaceOnUse"><stop offset=".01" stop-color="#774F2A"/><stop offset=".49" stop-color="#A67F50"/><stop offset="1" stop-color="#C0966B"/></linearGradient><linearGradient id="paint23_linear" x1="2500.21" y1="1283.51" x2="1633.04" y2="-357.387" gradientUnits="userSpaceOnUse"><stop offset=".01" stop-color="#774F2A"/><stop offset=".49" stop-color="#A67F50"/><stop offset="1" stop-color="#C0966B"/></linearGradient><linearGradient id="paint24_linear" x1="16238.6" y1="20841.1" x2="-1540.99" y2="3941.23" gradientUnits="userSpaceOnUse"><stop offset=".01" stop-color="#774F2A"/><stop offset=".49" stop-color="#A67F50"/><stop offset="1" stop-color="#C0966B"/></linearGradient><linearGradient id="paint25_linear" x1="64580" y1="96281.2" x2="-14162.8" y2="21435.9" gradientUnits="userSpaceOnUse"><stop offset=".01" stop-color="#774F2A"/><stop offset=".49" stop-color="#A67F50"/><stop offset="1" stop-color="#C0966B"/></linearGradient><linearGradient id="paint26_linear" x1="63296.5" y1="93306.5" x2="-13359.6" y2="20444.7" gradientUnits="userSpaceOnUse"><stop offset=".01" stop-color="#774F2A"/><stop offset=".49" stop-color="#A67F50"/><stop offset="1" stop-color="#C0966B"/></linearGradient><linearGradient id="paint27_linear" x1="40220.5" y1="43775" x2="-871.549" y2="4716.99" gradientUnits="userSpaceOnUse"><stop offset=".01" stop-color="#774F2A"/><stop offset=".49" stop-color="#A67F50"/><stop offset="1" stop-color="#C0966B"/></linearGradient><linearGradient id="paint28_linear" x1="74613.1" y1="174856" x2="-49674.2" y2="114216" gradientUnits="userSpaceOnUse"><stop offset=".01" stop-color="#774F2A"/><stop offset=".49" stop-color="#A67F50"/><stop offset="1" stop-color="#C0966B"/></linearGradient><linearGradient id="paint29_linear" x1="32964.3" y1="45704.1" x2="-5664.17" y2="9981.14" gradientUnits="userSpaceOnUse"><stop offset=".01" stop-color="#774F2A"/><stop offset=".49" stop-color="#A67F50"/><stop offset="1" stop-color="#C0966B"/></linearGradient><linearGradient id="paint30_linear" x1="995.505" y1="1618.58" x2="650.187" y2="1290.36" gradientUnits="userSpaceOnUse"><stop offset=".01" stop-color="#774F2A"/><stop offset=".49" stop-color="#A67F50"/><stop offset="1" stop-color="#C0966B"/></linearGradient><linearGradient id="paint31_linear" x1="3769.94" y1="4467.17" x2="717.684" y2="595.822" gradientUnits="userSpaceOnUse"><stop offset=".01" stop-color="#774F2A"/><stop offset=".49" stop-color="#A67F50"/><stop offset="1" stop-color="#C0966B"/></linearGradient><linearGradient id="paint32_linear" x1="2053.96" y1="3212.11" x2="-42.04" y2="1229.03" gradientUnits="userSpaceOnUse"><stop offset=".01" stop-color="#774F2A"/><stop offset=".49" stop-color="#A67F50"/><stop offset="1" stop-color="#C0966B"/></linearGradient><linearGradient id="paint33_linear" x1="3430.49" y1="50337.9" x2="-2168.35" y2="50025.7" gradientUnits="userSpaceOnUse"><stop offset=".01" stop-color="#774F2A"/><stop offset=".49" stop-color="#A67F50"/><stop offset="1" stop-color="#C0966B"/></linearGradient><linearGradient id="paint34_linear" x1="4652.42" y1="3364.14" x2="1600.02" y2="-507.246" gradientUnits="userSpaceOnUse"><stop offset=".01" stop-color="#774F2A"/><stop offset=".49" stop-color="#A67F50"/><stop offset="1" stop-color="#C0966B"/></linearGradient><linearGradient id="paint35_linear" x1="1870.58" y1="1708.61" x2="395.26" y2="306.34" gradientUnits="userSpaceOnUse"><stop offset=".01" stop-color="#774F2A"/><stop offset=".49" stop-color="#A67F50"/><stop offset="1" stop-color="#C0966B"/></linearGradient><linearGradient id="paint36_linear" x1="219966" y1="131596" x2="45441.7" y2="-34289.6" gradientUnits="userSpaceOnUse"><stop offset=".01" stop-color="#774F2A"/><stop offset=".49" stop-color="#A67F50"/><stop offset="1" stop-color="#C0966B"/></linearGradient><linearGradient id="paint37_linear" x1="42708.7" y1="41283.6" x2="1614.59" y2="2223.48" gradientUnits="userSpaceOnUse"><stop offset=".01" stop-color="#774F2A"/><stop offset=".49" stop-color="#A67F50"/><stop offset="1" stop-color="#C0966B"/></linearGradient><linearGradient id="paint38_linear" x1="38308.7" y1="41676.7" x2="-697.729" y2="4601.04" gradientUnits="userSpaceOnUse"><stop offset=".01" stop-color="#774F2A"/><stop offset=".49" stop-color="#A67F50"/><stop offset="1" stop-color="#C0966B"/></linearGradient><linearGradient id="paint39_linear" x1="40347.4" y1="39430.7" x2="1339.99" y2="2354.02" gradientUnits="userSpaceOnUse"><stop offset=".01" stop-color="#774F2A"/><stop offset=".49" stop-color="#A67F50"/><stop offset="1" stop-color="#C0966B"/></linearGradient><linearGradient id="paint40_linear" x1="263014" y1="178933" x2="95420.4" y2="-54355.1" gradientUnits="userSpaceOnUse"><stop offset=".01" stop-color="#774F2A"/><stop offset=".49" stop-color="#A67F50"/><stop offset="1" stop-color="#C0966B"/></linearGradient><linearGradient id="paint41_linear" x1="361512" y1="145649" x2="174382" y2="-127351" gradientUnits="userSpaceOnUse"><stop offset=".01" stop-color="#774F2A"/><stop offset=".49" stop-color="#A67F50"/><stop offset="1" stop-color="#C0966B"/></linearGradient><linearGradient id="paint42_linear" x1="2598.41" y1="2415.85" x2="511.671" y2="432.458" gradientUnits="userSpaceOnUse"><stop offset=".01" stop-color="#774F2A"/><stop offset=".49" stop-color="#A67F50"/><stop offset="1" stop-color="#C0966B"/></linearGradient><linearGradient id="paint43_linear" x1="38307.7" y1="41469.5" x2="-698.734" y2="4392.78" gradientUnits="userSpaceOnUse"><stop offset=".01" stop-color="#774F2A"/><stop offset=".49" stop-color="#A67F50"/><stop offset="1" stop-color="#C0966B"/></linearGradient><linearGradient id="paint44_linear" x1="37959.3" y1="46263.1" x2="-3134.93" y2="7203.02" gradientUnits="userSpaceOnUse"><stop offset=".01" stop-color="#774F2A"/><stop offset=".49" stop-color="#A67F50"/><stop offset="1" stop-color="#C0966B"/></linearGradient><linearGradient id="paint45_linear" x1="40446.5" y1="43770.7" x2="-647.727" y2="4710.57" gradientUnits="userSpaceOnUse"><stop offset=".01" stop-color="#774F2A"/><stop offset=".49" stop-color="#A67F50"/><stop offset="1" stop-color="#C0966B"/></linearGradient><linearGradient id="paint46_linear" x1="36270" y1="43715.5" x2="-2737.47" y2="6638.79" gradientUnits="userSpaceOnUse"><stop offset=".01" stop-color="#774F2A"/><stop offset=".49" stop-color="#A67F50"/><stop offset="1" stop-color="#C0966B"/></linearGradient><linearGradient id="paint47_linear" x1="42188.4" y1="87324.2" x2="-23598.4" y2="54471.3" gradientUnits="userSpaceOnUse"><stop offset=".01" stop-color="#774F2A"/><stop offset=".49" stop-color="#A67F50"/><stop offset="1" stop-color="#C0966B"/></linearGradient><linearGradient id="paint48_linear" x1="42530.2" y1="86864" x2="-23256.5" y2="54011.1" gradientUnits="userSpaceOnUse"><stop offset=".01" stop-color="#774F2A"/><stop offset=".49" stop-color="#A67F50"/><stop offset="1" stop-color="#C0966B"/></linearGradient><linearGradient id="paint49_linear" x1="3151.07" y1="3840.96" x2="200.534" y2="1036.53" gradientUnits="userSpaceOnUse"><stop offset=".01" stop-color="#774F2A"/><stop offset=".49" stop-color="#A67F50"/><stop offset="1" stop-color="#C0966B"/></linearGradient><linearGradient id="paint50_linear" x1="3475.96" y1="3285.18" x2="525.406" y2="480.663" gradientUnits="userSpaceOnUse"><stop offset=".01" stop-color="#774F2A"/><stop offset=".49" stop-color="#A67F50"/><stop offset="1" stop-color="#C0966B"/></linearGradient><linearGradient id="paint51_linear" x1="69228.6" y1="35417.4" x2="17362.9" y2="-13870.5" gradientUnits="userSpaceOnUse"><stop offset=".01" stop-color="#774F2A"/><stop offset=".49" stop-color="#A67F50"/><stop offset="1" stop-color="#C0966B"/></linearGradient><linearGradient id="paint52_linear" x1="134936" y1="85197.3" x2="25787" y2="-18557.9" gradientUnits="userSpaceOnUse"><stop offset=".01" stop-color="#774F2A"/><stop offset=".49" stop-color="#A67F50"/><stop offset="1" stop-color="#C0966B"/></linearGradient><linearGradient id="paint53_linear" x1="128531" y1="108118" x2="11945.7" y2="-3683.93" gradientUnits="userSpaceOnUse"><stop offset=".01" stop-color="#774F2A"/><stop offset=".49" stop-color="#A67F50"/><stop offset="1" stop-color="#C0966B"/></linearGradient><linearGradient id="paint54_linear" x1="129352" y1="109416" x2="11728.1" y2="-3382.44" gradientUnits="userSpaceOnUse"><stop offset=".01" stop-color="#774F2A"/><stop offset=".49" stop-color="#A67F50"/><stop offset="1" stop-color="#C0966B"/></linearGradient><linearGradient id="paint55_linear" x1="24996" y1="21481.3" x2="2303.9" y2="-87.572" gradientUnits="userSpaceOnUse"><stop offset=".01" stop-color="#774F2A"/><stop offset=".49" stop-color="#A67F50"/><stop offset="1" stop-color="#C0966B"/></linearGradient><linearGradient id="paint56_linear" x1="22854.2" y1="19398.7" x2="2248.87" y2="-186.666" gradientUnits="userSpaceOnUse"><stop offset=".01" stop-color="#774F2A"/><stop offset=".49" stop-color="#A67F50"/><stop offset="1" stop-color="#C0966B"/></linearGradient><linearGradient id="paint57_linear" x1="75046.6" y1="53706.2" x2="11426.5" y2="-6774" gradientUnits="userSpaceOnUse"><stop offset=".01" stop-color="#774F2A"/><stop offset=".49" stop-color="#A67F50"/><stop offset="1" stop-color="#C0966B"/></linearGradient><linearGradient id="paint58_linear" x1="209812" y1="105678" x2="67934.4" y2="-50667.3" gradientUnits="userSpaceOnUse"><stop offset=".01" stop-color="#774F2A"/><stop offset=".49" stop-color="#A67F50"/><stop offset="1" stop-color="#C0966B"/></linearGradient><linearGradient id="paint59_linear" x1="149202" y1="90398.9" x2="31542.2" y2="-23433.8" gradientUnits="userSpaceOnUse"><stop offset=".01" stop-color="#774F2A"/><stop offset=".49" stop-color="#A67F50"/><stop offset="1" stop-color="#C0966B"/></linearGradient><linearGradient id="paint60_linear" x1="3803.77" y1="4092.98" x2="-150.717" y2="1284.81" gradientUnits="userSpaceOnUse"><stop offset=".01" stop-color="#774F2A"/><stop offset=".49" stop-color="#A67F50"/><stop offset="1" stop-color="#C0966B"/></linearGradient><linearGradient id="paint61_linear" x1="2006.28" y1="1568.69" x2="530.963" y2="166.41" gradientUnits="userSpaceOnUse"><stop offset=".01" stop-color="#774F2A"/><stop offset=".49" stop-color="#A67F50"/><stop offset="1" stop-color="#C0966B"/></linearGradient><linearGradient id="paint62_linear" x1="44917" y1="167707" x2="-53405.9" y2="119414" gradientUnits="userSpaceOnUse"><stop offset=".01" stop-color="#774F2A"/><stop offset=".49" stop-color="#A67F50"/><stop offset="1" stop-color="#C0966B"/></linearGradient><linearGradient id="paint63_linear" x1="45363" y1="168792" x2="-53664.8" y2="120254" gradientUnits="userSpaceOnUse"><stop offset=".01" stop-color="#774F2A"/><stop offset=".49" stop-color="#A67F50"/><stop offset="1" stop-color="#C0966B"/></linearGradient><linearGradient id="paint64_linear" x1="937.822" y1="1694.88" x2="585.33" y2="1359.83" gradientUnits="userSpaceOnUse"><stop offset=".01" stop-color="#774F2A"/><stop offset=".49" stop-color="#A67F50"/><stop offset="1" stop-color="#C0966B"/></linearGradient><linearGradient id="paint65_linear" x1="61787.5" y1="152788" x2="-42672.4" y2="53505.2" gradientUnits="userSpaceOnUse"><stop offset=".01" stop-color="#774F2A"/><stop offset=".49" stop-color="#A67F50"/><stop offset="1" stop-color="#C0966B"/></linearGradient><linearGradient id="paint66_linear" x1="34130.1" y1="62148.2" x2="-12834.3" y2="17517.6" gradientUnits="userSpaceOnUse"><stop offset=".01" stop-color="#774F2A"/><stop offset=".49" stop-color="#A67F50"/><stop offset="1" stop-color="#C0966B"/></linearGradient><linearGradient id="paint67_linear" x1="91151.7" y1="106701" x2="16269.5" y2="-4408.27" gradientUnits="userSpaceOnUse"><stop offset=".01" stop-color="#774F2A"/><stop offset=".49" stop-color="#A67F50"/><stop offset="1" stop-color="#C0966B"/></linearGradient><linearGradient id="paint68_linear" x1="77461.2" y1="179721" x2="-47701.2" y2="59969.9" gradientUnits="userSpaceOnUse"><stop offset=".01" stop-color="#774F2A"/><stop offset=".49" stop-color="#A67F50"/><stop offset="1" stop-color="#C0966B"/></linearGradient><linearGradient id="paint69_linear" x1="419.066" y1="923.45" x2="383.818" y2="891.238" gradientUnits="userSpaceOnUse"><stop offset=".01" stop-color="#774F2A"/><stop offset=".49" stop-color="#A67F50"/><stop offset="1" stop-color="#C0966B"/></linearGradient><linearGradient id="paint70_linear" x1="2755.43" y1="5935.48" x2="-1197.13" y2="3113.43" gradientUnits="userSpaceOnUse"><stop offset=".01" stop-color="#774F2A"/><stop offset=".49" stop-color="#A67F50"/><stop offset="1" stop-color="#C0966B"/></linearGradient><linearGradient id="paint71_linear" x1="1945.41" y1="3324.75" x2="-150.528" y2="1341.8" gradientUnits="userSpaceOnUse"><stop offset=".01" stop-color="#774F2A"/><stop offset=".49" stop-color="#A67F50"/><stop offset="1" stop-color="#C0966B"/></linearGradient><linearGradient id="paint72_linear" x1="974.412" y1="622.535" x2="830.145" y2="494.509" gradientUnits="userSpaceOnUse"><stop offset=".01" stop-color="#774F2A"/><stop offset=".49" stop-color="#A67F50"/><stop offset="1" stop-color="#C0966B"/></linearGradient><linearGradient id="paint73_linear" x1="151665" y1="84901.7" x2="34471.7" y2="-26413.8" gradientUnits="userSpaceOnUse"><stop offset=".01" stop-color="#774F2A"/><stop offset=".49" stop-color="#A67F50"/><stop offset="1" stop-color="#C0966B"/></linearGradient><linearGradient id="paint74_linear" x1="84391.6" y1="84673.6" x2="503.147" y2="6929.08" gradientUnits="userSpaceOnUse"><stop offset=".01" stop-color="#774F2A"/><stop offset=".49" stop-color="#A67F50"/><stop offset="1" stop-color="#C0966B"/></linearGradient><linearGradient id="paint75_linear" x1="1541.46" y1="3995.68" x2="-223.025" y2="3410.86" gradientUnits="userSpaceOnUse"><stop offset=".01" stop-color="#774F2A"/><stop offset=".49" stop-color="#A67F50"/><stop offset="1" stop-color="#C0966B"/></linearGradient><linearGradient id="paint76_linear" x1="55285.2" y1="32327" x2="13652.1" y2="-9231.34" gradientUnits="userSpaceOnUse"><stop offset=".01" stop-color="#774F2A"/><stop offset=".49" stop-color="#A67F50"/><stop offset="1" stop-color="#C0966B"/></linearGradient><linearGradient id="paint77_linear" x1="56918.9" y1="38874.2" x2="-7060.35" y2="-17563.9" gradientUnits="userSpaceOnUse"><stop offset=".01" stop-color="#774F2A"/><stop offset=".49" stop-color="#A67F50"/><stop offset="1" stop-color="#C0966B"/></linearGradient><linearGradient id="paint78_linear" x1="4607.1" y1="417.796" x2="4605.43" y2="320.677" gradientUnits="userSpaceOnUse"><stop offset=".01" stop-color="#774F2A"/><stop offset=".49" stop-color="#A67F50"/><stop offset="1" stop-color="#C0966B"/></linearGradient><linearGradient id="paint79_linear" x1="73064.5" y1="42080.7" x2="15257.9" y2="-10886.2" gradientUnits="userSpaceOnUse"><stop offset=".01" stop-color="#774F2A"/><stop offset=".49" stop-color="#A67F50"/><stop offset="1" stop-color="#C0966B"/></linearGradient><linearGradient id="paint80_linear" x1="4789.44" y1="369.48" x2="4787.76" y2="272.342" gradientUnits="userSpaceOnUse"><stop offset=".01" stop-color="#774F2A"/><stop offset=".49" stop-color="#A67F50"/><stop offset="1" stop-color="#C0966B"/></linearGradient><linearGradient id="paint81_linear" x1="3618.54" y1="130014" x2="-1994.72" y2="129885" gradientUnits="userSpaceOnUse"><stop offset=".01" stop-color="#774F2A"/><stop offset=".49" stop-color="#A67F50"/><stop offset="1" stop-color="#C0966B"/></linearGradient><linearGradient id="paint82_linear" x1="3513.71" y1="707.399" x2="3512.01" y2="610.268" gradientUnits="userSpaceOnUse"><stop offset=".01" stop-color="#774F2A"/><stop offset=".49" stop-color="#A67F50"/><stop offset="1" stop-color="#C0966B"/></linearGradient><linearGradient id="paint83_linear" x1="90102.6" y1="90049.8" x2="1790.37" y2="6118" gradientUnits="userSpaceOnUse"><stop offset=".01" stop-color="#774F2A"/><stop offset=".49" stop-color="#A67F50"/><stop offset="1" stop-color="#C0966B"/></linearGradient><linearGradient id="paint84_linear" x1="3706.59" y1="659.959" x2="3704.93" y2="562.817" gradientUnits="userSpaceOnUse"><stop offset=".01" stop-color="#774F2A"/><stop offset=".49" stop-color="#A67F50"/><stop offset="1" stop-color="#C0966B"/></linearGradient><linearGradient id="paint85_linear" x1="4241.57" y1="113404" x2="-1372.29" y2="113289" gradientUnits="userSpaceOnUse"><stop offset=".01" stop-color="#774F2A"/><stop offset=".49" stop-color="#A67F50"/><stop offset="1" stop-color="#C0966B"/></linearGradient><linearGradient id="paint86_linear" x1="4124.01" y1="1000.04" x2="3501.7" y2="-762.855" gradientUnits="userSpaceOnUse"><stop offset=".01" stop-color="#774F2A"/><stop offset=".49" stop-color="#A67F50"/><stop offset="1" stop-color="#C0966B"/></linearGradient><linearGradient id="paint87_linear" x1="4357.62" y1="476.846" x2="4355.93" y2="379.661" gradientUnits="userSpaceOnUse"><stop offset=".01" stop-color="#774F2A"/><stop offset=".49" stop-color="#A67F50"/><stop offset="1" stop-color="#C0966B"/></linearGradient><linearGradient id="paint88_linear" x1="112737" y1="87348.4" x2="14055.4" y2="-6513.63" gradientUnits="userSpaceOnUse"><stop offset=".01" stop-color="#774F2A"/><stop offset=".49" stop-color="#A67F50"/><stop offset="1" stop-color="#C0966B"/></linearGradient><linearGradient id="paint89_linear" x1="3921.07" y1="1104.84" x2="3298.71" y2="-658.134" gradientUnits="userSpaceOnUse"><stop offset=".01" stop-color="#774F2A"/><stop offset=".49" stop-color="#A67F50"/><stop offset="1" stop-color="#C0966B"/></linearGradient><linearGradient id="paint90_linear" x1="1170.76" y1="725.602" x2="918.725" y2="451.821" gradientUnits="userSpaceOnUse"><stop offset=".01" stop-color="#774F2A"/><stop offset=".49" stop-color="#A67F50"/><stop offset="1" stop-color="#C0966B"/></linearGradient><linearGradient id="paint91_linear" x1="103481" y1="139998" x2="-16998" y2="27463.8" gradientUnits="userSpaceOnUse"><stop offset=".01" stop-color="#774F2A"/><stop offset=".49" stop-color="#A67F50"/><stop offset="1" stop-color="#C0966B"/></linearGradient><linearGradient id="paint92_linear" x1="1221.37" y1="3126.69" x2="-362.857" y2="2666.04" gradientUnits="userSpaceOnUse"><stop offset=".01" stop-color="#774F2A"/><stop offset=".49" stop-color="#A67F50"/><stop offset="1" stop-color="#C0966B"/></linearGradient><linearGradient id="paint93_linear" x1="91263.2" y1="118157" x2="-12563.6" y2="21459.9" gradientUnits="userSpaceOnUse"><stop offset=".01" stop-color="#774F2A"/><stop offset=".49" stop-color="#A67F50"/><stop offset="1" stop-color="#C0966B"/></linearGradient><linearGradient id="paint94_linear" x1="1178.99" y1="3079.77" x2="-405.162" y2="2619.14" gradientUnits="userSpaceOnUse"><stop offset=".01" stop-color="#774F2A"/><stop offset=".49" stop-color="#A67F50"/><stop offset="1" stop-color="#C0966B"/></linearGradient><linearGradient id="paint95_linear" x1="57705" y1="103214" x2="-20892.3" y2="28507.3" gradientUnits="userSpaceOnUse"><stop offset=".01" stop-color="#774F2A"/><stop offset=".49" stop-color="#A67F50"/><stop offset="1" stop-color="#C0966B"/></linearGradient><linearGradient id="paint96_linear" x1="2228.31" y1="3397.67" x2="96.722" y2="672.255" gradientUnits="userSpaceOnUse"><stop offset=".01" stop-color="#774F2A"/><stop offset=".49" stop-color="#A67F50"/><stop offset="1" stop-color="#C0966B"/></linearGradient><linearGradient id="paint97_linear" x1="2416.52" y1="3841.57" x2="78.75" y2="1073.12" gradientUnits="userSpaceOnUse"><stop offset=".01" stop-color="#774F2A"/><stop offset=".49" stop-color="#A67F50"/><stop offset="1" stop-color="#C0966B"/></linearGradient><linearGradient id="paint98_linear" x1="2204.42" y1="119744" x2="-3405.82" y2="119560" gradientUnits="userSpaceOnUse"><stop offset=".01" stop-color="#774F2A"/><stop offset=".49" stop-color="#A67F50"/><stop offset="1" stop-color="#C0966B"/></linearGradient><linearGradient id="paint99_linear" x1="2277.84" y1="1383" x2="2217.95" y2="806.036" gradientUnits="userSpaceOnUse"><stop offset=".01" stop-color="#774F2A"/><stop offset=".49" stop-color="#A67F50"/><stop offset="1" stop-color="#C0966B"/></linearGradient><linearGradient id="paint100_linear" x1="2129.35" y1="4271.76" x2="-351.145" y2="1482.88" gradientUnits="userSpaceOnUse"><stop offset=".01" stop-color="#774F2A"/><stop offset=".49" stop-color="#A67F50"/><stop offset="1" stop-color="#C0966B"/></linearGradient><linearGradient id="paint101_linear" x1="2127.28" y1="121666" x2="-3501.37" y2="121482" gradientUnits="userSpaceOnUse"><stop offset=".01" stop-color="#774F2A"/><stop offset=".49" stop-color="#A67F50"/><stop offset="1" stop-color="#C0966B"/></linearGradient><linearGradient id="paint102_linear" x1="2200.59" y1="1410.38" x2="2140.87" y2="833.413" gradientUnits="userSpaceOnUse"><stop offset=".01" stop-color="#774F2A"/><stop offset=".49" stop-color="#A67F50"/><stop offset="1" stop-color="#C0966B"/></linearGradient><linearGradient id="paint103_linear" x1="2046.07" y1="4348.16" x2="-434.398" y2="1559.21" gradientUnits="userSpaceOnUse"><stop offset=".01" stop-color="#774F2A"/><stop offset=".49" stop-color="#A67F50"/><stop offset="1" stop-color="#C0966B"/></linearGradient><linearGradient id="paint104_linear" x1="38622.5" y1="89738.5" x2="-23455.8" y2="30114.4" gradientUnits="userSpaceOnUse"><stop offset=".01" stop-color="#774F2A"/><stop offset=".49" stop-color="#A67F50"/><stop offset="1" stop-color="#C0966B"/></linearGradient><linearGradient id="paint105_linear" x1="1386.94" y1="3719.36" x2="-612.956" y2="1809.27" gradientUnits="userSpaceOnUse"><stop offset=".01" stop-color="#774F2A"/><stop offset=".49" stop-color="#A67F50"/><stop offset="1" stop-color="#C0966B"/></linearGradient><linearGradient id="paint106_linear" x1="1325.67" y1="3090.92" x2="-117.067" y2="1517.13" gradientUnits="userSpaceOnUse"><stop offset=".01" stop-color="#774F2A"/><stop offset=".49" stop-color="#A67F50"/><stop offset="1" stop-color="#C0966B"/></linearGradient><linearGradient id="paint107_linear" x1="166.497" y1="954.888" x2="162.346" y2="950.94" gradientUnits="userSpaceOnUse"><stop offset=".01" stop-color="#774F2A"/><stop offset=".49" stop-color="#A67F50"/><stop offset="1" stop-color="#C0966B"/></linearGradient><linearGradient id="paint108_linear" x1="2517.34" y1="6366.21" x2="-1335.88" y2="2703.74" gradientUnits="userSpaceOnUse"><stop offset=".01" stop-color="#774F2A"/><stop offset=".49" stop-color="#A67F50"/><stop offset="1" stop-color="#C0966B"/></linearGradient><linearGradient id="paint109_linear" x1="54705.4" y1="131783" x2="-36598.2" y2="46986" gradientUnits="userSpaceOnUse"><stop offset=".01" stop-color="#774F2A"/><stop offset=".49" stop-color="#A67F50"/><stop offset="1" stop-color="#C0966B"/></linearGradient><linearGradient id="paint110_linear" x1="599.259" y1="4564.57" x2="-370.717" y2="4400.8" gradientUnits="userSpaceOnUse"><stop offset=".01" stop-color="#774F2A"/><stop offset=".49" stop-color="#A67F50"/><stop offset="1" stop-color="#C0966B"/></linearGradient><linearGradient id="paint111_linear" x1="105111" y1="101747" x2="3912.06" y2="7537.78" gradientUnits="userSpaceOnUse"><stop offset=".01" stop-color="#774F2A"/><stop offset=".49" stop-color="#A67F50"/><stop offset="1" stop-color="#C0966B"/></linearGradient><linearGradient id="paint112_linear" x1="2440.14" y1="4284.35" x2="-78.013" y2="2875.04" gradientUnits="userSpaceOnUse"><stop offset=".01" stop-color="#774F2A"/><stop offset=".49" stop-color="#A67F50"/><stop offset="1" stop-color="#C0966B"/></linearGradient><linearGradient id="paint113_linear" x1="111888" y1="106376" x2="3951.84" y2="5772.58" gradientUnits="userSpaceOnUse"><stop offset=".01" stop-color="#774F2A"/><stop offset=".49" stop-color="#A67F50"/><stop offset="1" stop-color="#C0966B"/></linearGradient><linearGradient id="paint114_linear" x1="2423.45" y1="4265.45" x2="-94.708" y2="2856.13" gradientUnits="userSpaceOnUse"><stop offset=".01" stop-color="#774F2A"/><stop offset=".49" stop-color="#A67F50"/><stop offset="1" stop-color="#C0966B"/></linearGradient><linearGradient id="paint115_linear" x1="119960" y1="111494" x2="5305.8" y2="4495.69" gradientUnits="userSpaceOnUse"><stop offset=".01" stop-color="#774F2A"/><stop offset=".49" stop-color="#A67F50"/><stop offset="1" stop-color="#C0966B"/></linearGradient><linearGradient id="paint116_linear" x1="2406.66" y1="4246.48" x2="-111.491" y2="2837.14" gradientUnits="userSpaceOnUse"><stop offset=".01" stop-color="#774F2A"/><stop offset=".49" stop-color="#A67F50"/><stop offset="1" stop-color="#C0966B"/></linearGradient><linearGradient id="paint117_linear" x1="3723.13" y1="2450.74" x2="2505.92" y2="136.773" gradientUnits="userSpaceOnUse"><stop offset=".01" stop-color="#774F2A"/><stop offset=".49" stop-color="#A67F50"/><stop offset="1" stop-color="#C0966B"/></linearGradient><linearGradient id="paint118_linear" x1="3905.98" y1="3062.53" x2="1774.3" y2="337.034" gradientUnits="userSpaceOnUse"><stop offset=".01" stop-color="#774F2A"/><stop offset=".49" stop-color="#A67F50"/><stop offset="1" stop-color="#C0966B"/></linearGradient><linearGradient id="paint119_linear" x1="878.887" y1="593.973" x2="788.692" y2="551.124" gradientUnits="userSpaceOnUse"><stop offset=".01" stop-color="#774F2A"/><stop offset=".49" stop-color="#A67F50"/><stop offset="1" stop-color="#C0966B"/></linearGradient><linearGradient id="paint120_linear" x1="102043" y1="80477.5" x2="12294.2" y2="-4829.32" gradientUnits="userSpaceOnUse"><stop offset=".01" stop-color="#774F2A"/><stop offset=".49" stop-color="#A67F50"/><stop offset="1" stop-color="#C0966B"/></linearGradient><linearGradient id="paint121_linear" x1="1710.95" y1="895.389" x2="1177.17" y2="387.988" gradientUnits="userSpaceOnUse"><stop offset=".01" stop-color="#774F2A"/><stop offset=".49" stop-color="#A67F50"/><stop offset="1" stop-color="#C0966B"/></linearGradient><linearGradient id="paint122_linear" x1="7670.24" y1="5856.77" x2="1613.86" y2="100.206" gradientUnits="userSpaceOnUse"><stop offset=".01" stop-color="#774F2A"/><stop offset=".49" stop-color="#A67F50"/><stop offset="1" stop-color="#C0966B"/></linearGradient><linearGradient id="paint123_linear" x1="6886.93" y1="4110.76" x2="2179.63" y2="-363.56" gradientUnits="userSpaceOnUse"><stop offset=".01" stop-color="#774F2A"/><stop offset=".49" stop-color="#A67F50"/><stop offset="1" stop-color="#C0966B"/></linearGradient><linearGradient id="paint124_linear" x1="3204.17" y1="3099.13" x2="845.662" y2="857.386" gradientUnits="userSpaceOnUse"><stop offset=".01" stop-color="#774F2A"/><stop offset=".49" stop-color="#A67F50"/><stop offset="1" stop-color="#C0966B"/></linearGradient><linearGradient id="paint125_linear" x1="2934.52" y1="2095.21" x2="1117.56" y2="312.75" gradientUnits="userSpaceOnUse"><stop offset=".01" stop-color="#774F2A"/><stop offset=".49" stop-color="#A67F50"/><stop offset="1" stop-color="#C0966B"/></linearGradient><linearGradient id="paint126_linear" x1="2956.57" y1="2129.35" x2="1101.86" y2="329.523" gradientUnits="userSpaceOnUse"><stop offset=".01" stop-color="#774F2A"/><stop offset=".49" stop-color="#A67F50"/><stop offset="1" stop-color="#C0966B"/></linearGradient><linearGradient id="paint127_linear" x1="2181.44" y1="1618.39" x2="1172.03" y2="658.977" gradientUnits="userSpaceOnUse"><stop offset=".01" stop-color="#774F2A"/><stop offset=".49" stop-color="#A67F50"/><stop offset="1" stop-color="#C0966B"/></linearGradient></defs></svg>