<svg width="340" height="107" viewBox="0 0 340 107" xmlns="http://www.w3.org/2000/svg" xmlns:xlink="http://www.w3.org/1999/xlink"><defs><path d="M0 .152h127.665v21.362h84.664V.152L339.8 0v83.472l-127.471.152v22.858h-84.664V83.624H0V.152zm200.637 45.834l.316-1.838-30.774-6.704-30.898 6.704.332 1.838 30.578-6.49 30.446 6.49zm-5.296 45.64h3.038s.04-3.082.04-17.022c0-2.324-.134-15.398-.134-15.398h-2.87s-.106 12.862-.106 15.336c0 13.958.032 17.084.032 17.084zm-10.688 0h3.038s.04-3.082.04-17.022c0-2.324-.134-15.398-.134-15.398h-2.87s-.11 12.862-.11 15.336c0 13.958.036 17.084.036 17.084zm-10.688 0h3.036s.046-3.082.046-17.022c0-2.324-.136-15.398-.136-15.398h-2.872s-.11 12.862-.11 15.336c0 13.958.036 17.084.036 17.084zm-10.688 0h3.044s.034-3.082.034-17.022c0-2.324-.128-15.398-.128-15.398h-2.872s-.108 12.862-.108 15.336c0 13.958.03 17.084.03 17.084zm-10.682 0h3.038s.036-3.082.036-17.022c0-2.324-.13-15.398-.13-15.398h-2.87s-.11 12.862-.11 15.336c0 13.958.036 17.084.036 17.084zm-10.688 0h3.034s.04-3.082.04-17.022c0-2.324-.13-15.398-.13-15.398h-2.874s-.106 12.862-.106 15.336c0 13.958.036 17.084.036 17.084z" id="a"/></defs><g fill="none" fill-rule="evenodd"><mask id="b" fill="#fff"><use xlink:href="#a"/></mask><path fill="#FFF" mask="url(#b)" d="M0 106.52h339.84V-.04H0z"/></g></svg>