<svg width="93" height="68" viewBox="0 0 93 68" fill="none" xmlns="http://www.w3.org/2000/svg"><path d="M50.284 65.173H26.01c-.123 0-.246-.008-.361-.016-.27-.015.161.046-.1-.015-.085-.023-.17-.03-.246-.054-.085-.023-.161-.046-.246-.07-.054-.015-.107-.038-.154-.053.093.038.085.038-.015-.008a4.088 4.088 0 01-.438-.238 4.576 4.576 0 01-.2-.139c.154.116-.053-.046-.069-.061a3.669 3.669 0 01-.346-.346c-.015-.016-.176-.231-.061-.07-.062-.092-.123-.177-.184-.277-.308-.5-.408-.915-.415-1.477V6.673c0-.123.007-.239.015-.354.015-.27-.046.161.015-.1.023-.085.031-.17.054-.246l.046-.162c.008-.03.13-.354.054-.177.061-.154.146-.3.23-.438l.139-.208c.138-.215-.116.115.054-.077.107-.123.215-.246.338-.354l.184-.161c-.146.115.123-.077.146-.1.138-.093.284-.162.438-.239.23-.115-.161.039.092-.03.077-.024.162-.054.238-.077.085-.024.162-.047.246-.062.023-.008.3-.046.093-.023.146-.015.292-.023.438-.023h24.281c.146 0 .3.008.446.023-.2-.023.076.015.092.023.084.015.161.038.246.062.084.023.161.053.238.076.1.039.108.039.015 0 .054.024.1.047.154.07.146.069.292.154.43.246.016.008.23.17.077.054l.184.161c.123.108.231.231.339.354.169.192-.085-.138.053.077.062.092.123.185.177.277.039.07.077.146.115.215.008.023.108.27.039.085a3.619 3.619 0 01.192.738c-.03-.2.008.077.008.1.007.085.007.177.007.262v55.684c0 .124-.007.239-.015.354-.015.27.046-.161-.015.1-.023.085-.031.17-.054.247l-.07.246c-.007.015-.1.277-.03.092-.062.154-.146.3-.23.438l-.139.208c-.138.215.115-.115-.054.077a3.645 3.645 0 01-.338.354l-.184.161c.153-.123-.062.039-.077.054a3.435 3.435 0 01-.43.246c-.023.008-.27.108-.085.039-.077.03-.154.054-.238.084-.161.054-.33.085-.492.116.2-.03-.077.008-.1.008h-.253a.932.932 0 00-.915.915c0 .492.415.915.915.915 2.574-.03 4.64-2.13 4.648-4.707V7.511c0-.392.023-.792-.015-1.185-.146-1.607-1.091-3.107-2.566-3.815a4.962 4.962 0 00-2.244-.508H26.47c-.223 0-.438-.007-.66.008-1.6.07-3.105.977-3.881 2.392-.484.877-.584 1.816-.584 2.785v54.97c0 1.845.96 3.63 2.697 4.4 1.06.468 2.113.438 3.235.438h23.006a.932.932 0 00.914-.916.936.936 0 00-.914-.907z" fill="#F8D196"/><path d="M53.542 22.203v8.247c0 .376-.008.761 0 1.138v.015c0 .231.1.477.269.646a.926.926 0 00.645.27c.492-.023.914-.4.914-.916v-8.246c0-.377.008-.761 0-1.138v-.016c0-.23-.1-.477-.268-.646a.926.926 0 00-.646-.269c-.5.023-.914.4-.914.915zM21 20.988v5.346c0 .23.1.477.269.646a.926.926 0 00.645.27c.492-.023.915-.4.915-.916v-5.346a.94.94 0 00-.27-.646.926.926 0 00-.645-.27c-.5.024-.914.4-.914.916zm.084-8.146v2.546c0 .23.1.477.27.646a.926.926 0 00.645.27c.492-.024.914-.4.914-.916v-2.546c0-.231-.1-.477-.269-.646a.926.926 0 00-.645-.27c-.492.024-.915.408-.915.916z" fill="#F8D196"/><path d="M21 27.719v5.346c0 .23.1.477.269.646a.926.926 0 00.645.27c.492-.024.915-.4.915-.916v-5.346c0-.231-.1-.477-.27-.646a.926.926 0 00-.645-.27c-.5.031-.914.408-.914.916zm36.491 6.738h29.852c.162 0 .316.016.477.031-.33-.023-.015 0 .077.023.092.016.176.039.261.07.085.022.17.053.254.084.03.008.053.023.084.03.146.055-.23-.107-.015 0 .161.078.315.162.46.262.078.047.147.1.216.154-.269-.184.023.023.085.085.122.115.238.238.345.369.046.054.108.154-.046-.061.023.038.054.069.077.107.061.085.115.17.169.262.046.077.084.154.123.23a.595.595 0 01.054.124c.077.153-.085-.216-.023-.054.069.184.13.369.169.561l.046.246c.023.123-.03-.253-.008-.084.008.046.008.092.016.138.007.093.007.193.007.285v24.308c0 .138-.008.276-.023.423-.015.146.016-.108.016-.108 0 .038-.016.092-.023.138l-.07.308c-.023.085-.053.17-.084.254-.016.038-.03.085-.046.123-.062.162.1-.208.023-.054a3.946 3.946 0 01-.277.5c-.046.077-.1.146-.154.216.177-.254.031-.039-.023.015a3.331 3.331 0 01-.407.4c-.054.046-.184.13.046-.03-.038.022-.069.053-.107.076-.07.054-.146.1-.223.146-.077.046-.154.093-.23.131-.04.023-.078.038-.124.062-.215.1.162-.062.016 0a4.756 4.756 0 01-.469.153 2.767 2.767 0 01-.269.054c-.07.016-.23.016.062-.007a1.49 1.49 0 01-.185.015c-.1.008-.2.008-.3.008H57.484c-.477 0-.93.423-.915.915.023.492.4.915.915.915H87.19c.837 0 1.652-.169 2.397-.576 1.476-.8 2.398-2.408 2.405-4.077V37.319c-.007-1.723-.999-3.4-2.558-4.154a5.1 5.1 0 00-2.26-.5H57.476c-.477 0-.93.423-.914.915.038.462.414.877.93.877z" fill="#F8D196"/><path d="M71.822 64.865h-8.237c-.377 0-.761-.008-1.138 0h-.015a.94.94 0 00-.645.27.929.929 0 00-.27.645c.024.493.4.916.915.916h8.237c.377 0 .761.007 1.138 0h.015c.23 0 .476-.1.645-.27a.928.928 0 00.27-.646c-.024-.5-.4-.915-.915-.915zm1.222-32.577h-5.341a.94.94 0 00-.645.27.928.928 0 00-.27.645c.024.493.4.916.915.916h5.341c.23 0 .476-.1.645-.27a.928.928 0 00.269-.645c-.03-.5-.407-.916-.914-.916zm8.129.085H78.63a.94.94 0 00-.646.269.928.928 0 00-.268.646c.023.492.4.916.914.916h2.543c.23 0 .477-.1.646-.27a.928.928 0 00.269-.646c-.023-.492-.4-.915-.915-.915z" fill="#F8D196"/><path d="M66.313 32.288h-5.342a.94.94 0 00-.645.27.928.928 0 00-.27.645c.024.493.4.916.915.916h5.34c.231 0 .477-.1.646-.27a.928.928 0 00.269-.645c-.023-.5-.4-.916-.915-.916zM60.304 3.834h17.765l.207.008a9.014 9.014 0 012.444.362c.53.153 1.045.346 1.544.584a9.724 9.724 0 013.773 3.215 9.5 9.5 0 011.399 3.039c.13.5.223 1.015.276 1.53l.031.393c.008.13.008.261.015.392l.008.2v13.985c0 .654-.008 1.308 0 1.961v.085c0 .53.423 1.038.914 1.015.492-.023.915-.446.915-1.015V13.519l-.008-.223c-.008-.146 0-.3-.015-.446l-.03-.447a11.599 11.599 0 00-1.038-3.777A11.655 11.655 0 0086.26 5.42a11.62 11.62 0 00-3.243-2.3 11.427 11.427 0 00-3.834-1.054l-.46-.038c-.155-.008-.308-.008-.462-.016-.169-.008-.307-.008-.446-.008h-15.46c-.653 0-1.306-.007-1.96 0h-.084c-.53 0-1.037.423-1.014.916.015.492.438.915 1.007.915z" fill="#F8D196"/><path d="M89.318 28.865l-2.12-2.361-.3-.331a.896.896 0 00-.646-.3.868.868 0 00-.645.3c-.33.407-.361 1.03 0 1.438l2.12 2.362.3.33c.17.185.408.3.646.3a.867.867 0 00.645-.3c.33-.407.361-1.038 0-1.438z" fill="#F8D196"/><path d="M89.318 30.303l2.121-2.361.3-.33c.169-.185.269-.455.269-.716 0-.247-.1-.547-.27-.716-.36-.369-.929-.4-1.29 0l-2.12 2.362-.3.33c-.17.185-.27.454-.27.716 0 .246.1.546.27.715.36.37.93.4 1.29 0z" fill="#F8D196"/></svg>