<svg width="174" height="37" viewBox="0 0 174 37" fill="none" xmlns="http://www.w3.org/2000/svg"><g clip-path="url(#clip0)"><path d="M174 13.553c-1.971-3.359-5.197-5.098-9.617-5.098-5.973 0-10.632 3.838-10.632 10.015 0 6.177 4.539 10.015 10.632 10.015 4.42 0 7.706-1.74 9.617-5.098l-3.345-1.919c-1.434 2.1-3.345 3.239-6.391 3.239-3.704 0-6.272-2.519-6.272-6.177 0-3.778 2.449-6.177 6.272-6.177 3.046 0 4.898 1.14 6.391 3.239l3.345-2.04zm-39.364 4.917c0-3.958 2.091-6.297 6.153-6.297 4.002 0 6.152 2.4 6.152 6.297 0 3.898-2.09 6.297-6.152 6.297s-6.153-2.4-6.153-6.297zm-11.349-9.595v19.13h4.241v-8.096h2.867c.658 5.517 5.018 8.576 10.334 8.576 5.734 0 10.394-3.658 10.394-10.015 0-6.356-4.66-10.015-10.394-10.015-5.017 0-9.139 2.759-10.154 7.616h-3.047V8.875h-4.241zm-19.293 0l-2.569 13.673c-.179 1.02-.836 1.499-1.851 1.499h-2.091v3.958h2.27c3.106 0 5.256-1.5 5.854-4.857l1.911-10.375h7.287v15.232h4.301V8.875h-15.112zm-7.825 9.595c0-5.997-4.898-10.015-10.692-10.015-5.794 0-10.692 4.018-10.692 10.015 0 5.997 4.898 10.015 10.692 10.015 5.794 0 10.692-4.018 10.692-10.015zm-17.084 0c0-3.958 2.808-6.297 6.392-6.297 3.584 0 6.391 2.4 6.391 6.297 0 3.898-2.807 6.297-6.391 6.297s-6.392-2.4-6.392-6.297zM52.863 8.875v19.13h4.241V12.713h10.214v15.292h4.301V8.875H52.863z" fill="#fff"/><path fill-rule="evenodd" clip-rule="evenodd" d="M37.392 16.071l-13.559 2.04c-.298.06-.537-.24-.537-.54l.418-7.257c.06-.9.537-1.379 1.254-1.439l8.661-1.32c.717-.119 1.314.18 1.613 1.02l2.509 6.837c.12.3-.06.6-.359.66zm-9.915 19.25l-6.212-12.233c-.12-.3.06-.6.358-.72l6.989-1.92c.896-.239 1.493.12 1.792.72l4.002 7.856c.298.66.239 1.32-.478 1.86l-5.675 4.557c-.239.24-.597.18-.776-.12zM5.973 31.843l9.796-9.655c.24-.24.598-.12.777.12l3.942 6.117c.478.78.358 1.439-.179 1.919l-6.272 6.176c-.478.48-1.195.6-1.911.12l-6.033-4.018c-.24-.18-.359-.54-.12-.78zM2.748 10.314l12.185 6.357c.299.18.299.54.12.78l-4.54 5.636c-.538.72-1.255.78-1.852.42L.896 19.49c-.597-.3-.956-.899-.717-1.799l1.971-7.016c0-.3.299-.48.598-.36zM22.16.54l-2.27 13.552c-.06.3-.418.48-.717.36l-6.75-2.638c-.836-.3-1.135-.96-1.015-1.68l1.433-8.695c.12-.72.598-1.2 1.494-1.26L21.623 0c.299 0 .597.24.538.54z" fill="#FFAF01"/></g><defs><clipPath id="clip0"><path fill="#fff" d="M0 0h174v37H0z"/></clipPath></defs></svg>