<svg xmlns="http://www.w3.org/2000/svg" viewBox="0 0 2430.96 500"><g data-name="Layer 2"><g data-name="Слой 1"><path d="M2423.48 152.29c-40.2-29.9-82.26-38.32-130.41-38.32-65.91.03-120.07 25.25-120.07 79.93 0 48.15 32.25 68.7 85.07 74.79l86.94 9.82c22 2.34 29.44 9.34 29.44 23.36 0 22-29.92 32.25-71 32.25-42.54 0-77.14-11.21-112.65-36l-27.58 45.34c41.14 30.39 80.86 41.61 133.69 41.61 77.58 0 134.14-26.18 134.14-84.15 0-47.67-34.12-71.05-89.28-77.57l-77.59-8.89c-20.1-2.34-33.65-6.07-33.65-21 0-14.48 12.16-27.57 62.63-27.57 41.13 0 72 8.41 102.36 29.45zM1859.77 120v131.86c0 85.54 51.42 133.22 132.28 133.22s132.27-47.68 132.27-133.22V120h-58.41v132.32c0 50.49-22.9 81.35-73.86 81.35s-73.85-30.86-73.85-81.35V120zm-330.47 0l121.07 194v64.51h57.51V314l121.52-194h-66.86l-79.92 137.9h-3.73L1596.15 120zm-183.69 0v258.53h236.52v-52.82H1404V120zm-43 129.48c0-81.33-66.37-135.55-144.9-135.55s-144.89 54.22-144.89 135.55 66.37 135.56 144.89 135.56 144.9-54.23 144.9-135.56m-231.36 0c0-53.29 37.85-85.53 86.46-85.53s86.48 32.24 86.48 85.53-37.87 85.54-86.48 85.54-86.46-32.25-86.46-85.54m-295-76.19h91.61c29.92 0 50.49 18.23 50.49 48.15s-20.57 46.28-50.49 46.28H776.3zM717.87 120v258.53h58.43v-57.48h94c60.78 0 106.58-38.81 106.58-99.57S931 120 870.25 120z" fill="#fff"/><path d="M507.36 217.39L323.34 245c-4.38.66-7.7-3.2-7.46-7.59l5.4-98.3c.66-12.17 7.61-18.42 17.06-19.85l117.76-17.64c9.45-1.42 17.93 2.52 22.14 14l34 92.36c1.53 4.15-.51 8.81-4.89 9.45M373.17 478l-84.29-166c-2-3.95.61-8.31 4.87-9.48l95-25.89c11.77-3.21 19.9 1.41 24.23 9.93l53.93 106.18c4.32 8.52 3.26 17.8-6.26 25.41l-76.93 61.43c-3.45 2.75-8.51 2.28-10.51-1.66M81.36 430.55l132.52-130.66c3.15-3.1 8.1-1.93 10.5 1.77l53.49 82.63c6.62 10.23 4.69 19.37-2.12 26.08L191 494c-6.8 6.71-16 8.51-26.12 1.74L83 441.06c-3.67-2.44-4.76-7.41-1.62-10.51M37.13 139.74l165.33 85.42c3.92 2 4.36 7.1 1.58 10.52l-62 76.49c-7.66 9.48-17 10.49-25.44 6.1L10.84 263.6c-8.49-4.4-13.06-12.54-9.77-24.28l26.56-94.79c1.18-4.26 5.58-6.83 9.5-4.79M300.74 7.58l-30.56 183.56c-.72 4.37-5.42 6.34-9.53 4.74l-91.82-35.49c-11.37-4.39-15.18-12.93-13.6-22.35L174.8 20.56c1.56-9.42 7.91-16.27 20.09-16.74L293.27 0c4.4-.17 8.2 3.2 7.47 7.57" fill="#ffb71b" fill-rule="evenodd"/></g></g></svg>