<svg xmlns="http://www.w3.org/2000/svg" xmlns:xlink="http://www.w3.org/1999/xlink"><symbol id="cross" viewBox="0 0 32 32"><path d="M7 24L25 8M25 24L7 8" stroke-width="3" stroke-linecap="round"/></symbol><symbol id="icon-back" viewBox="0 0 23 8">
<path d="M0.646447 3.64645C0.451184 3.84171 0.451184 4.15829 0.646447 4.35355L3.82843 7.53553C4.02369 7.7308 4.34027 7.7308 4.53553 7.53553C4.7308 7.34027 4.7308 7.02369 4.53553 6.82843L1.70711 4L4.53553 1.17157C4.7308 0.976311 4.7308 0.659728 4.53553 0.464466C4.34027 0.269204 4.02369 0.269204 3.82843 0.464466L0.646447 3.64645ZM1 4.5H23V3.5H1V4.5Z" fill="black"/>
</symbol><symbol id="menu" viewBox="0 0 32 32"><path d="M5 8h22M5 16h22M27 24H5" stroke-width="3" stroke-linecap="round"/></symbol></svg>